<svg xmlns="http://www.w3.org/2000/svg" xmlns:xlink="http://www.w3.org/1999/xlink" width="1366" height="398" viewBox="0 0 1366 398"><defs><style>.a{fill:#fafafa;}.b,.c{opacity:0.25;}.b{clip-path:url(#a);}.c{fill:#767b83;}</style><clipPath id="a"><rect class="a" width="1366" height="398" transform="translate(3767 -5861)"/></clipPath></defs><g class="b" transform="translate(-3767 5861)"><g transform="translate(4942.251 -5755.162) rotate(34)"><rect class="c" width="360.387" height="128.038" rx="6" transform="translate(0 0)"/><rect class="a" width="360.387" height="6.484" transform="translate(0 15.807)"/><rect class="a" width="37.937" height="6.484" rx="3.242" transform="translate(15.561 41.296)"/><rect class="a" width="331.934" height="6.484" rx="3.242" transform="translate(14.226 61.648)"/><rect class="a" width="331.934" height="6.904" rx="3.452" transform="translate(14.226 83.778)"/></g><g transform="translate(4027.985 -5649.014) rotate(146)"><rect class="c" width="360.387" height="128.037" rx="6" transform="translate(0 0)"/><rect class="a" width="360.387" height="6.484" transform="translate(0 105.746)"/><rect class="a" width="294.937" height="6.484" rx="3.242" transform="translate(15.561 80.257)"/><rect class="a" width="108.934" height="6.484" rx="3.242" transform="translate(14.226 59.906)"/><rect class="a" width="331.934" height="6.903" rx="3.452" transform="translate(14.226 37.356)"/></g><g transform="translate(4843.883 -5620.339) rotate(34)"><rect class="c" width="126.457" height="206.201" rx="6" transform="translate(0 0)"/><rect class="a" width="130.457" height="6.646" transform="translate(-3 28.13)"/><rect class="a" width="86.939" height="6.646" rx="3.323" transform="translate(18.969 55.325)"/><rect class="a" width="86.939" height="6.646" rx="3.323" transform="translate(18.237 73.912)"/><rect class="a" width="86.939" height="63.646" rx="5" transform="translate(18.624 94.156)"/></g><g transform="translate(4172.549 -5451.068) rotate(146)"><rect class="c" width="126.457" height="206.201" rx="6" transform="translate(3 0)"/><rect class="a" width="130.457" height="6.646" transform="translate(0 171.425)"/><rect class="a" width="86.939" height="6.646" rx="3.323" transform="translate(21.969 144.23)"/><rect class="a" width="86.939" height="6.646" rx="3.323" transform="translate(21.237 125.644)"/><rect class="a" width="86.939" height="6.646" rx="3.323" transform="translate(21.624 105.399)"/></g><g transform="translate(4981.883 -5529.339) rotate(34)"><rect class="c" width="152.457" height="206.201" rx="6" transform="translate(0 0)"/><rect class="a" width="157.457" height="6.646" transform="translate(-3 28.13)"/><rect class="a" width="109.939" height="6.646" rx="3.323" transform="translate(18.969 55.325)"/><rect class="a" width="86.939" height="6.646" rx="3.323" transform="translate(18.237 73.912)"/></g><g transform="translate(4034.549 -5360.068) rotate(146)"><rect class="c" width="152.457" height="206.201" rx="6" transform="translate(3 0)"/><rect class="a" width="157.457" height="6.646" transform="translate(0 171.425)"/><rect class="a" width="109.939" height="6.646" rx="3.323" transform="translate(21.969 144.23)"/><rect class="a" width="86.939" height="6.646" rx="3.323" transform="translate(21.237 125.644)"/></g><g transform="translate(5077.883 -5958.339) rotate(34)"><rect class="c" width="126.457" height="206.201" rx="6" transform="translate(0 0)"/><rect class="a" width="130.457" height="6.646" transform="translate(-3 28.13)"/><rect class="a" width="86.939" height="6.646" rx="3.323" transform="translate(18.969 55.325)"/><rect class="a" width="86.939" height="6.646" rx="3.323" transform="translate(17.837 153.792)"/><rect class="a" width="86.939" height="67.646" rx="5" transform="translate(18.624 73.156)"/></g><g transform="translate(3938.549 -5789.068) rotate(146)"><rect class="c" width="126.457" height="206.201" rx="6" transform="translate(3 0)"/><rect class="a" width="130.457" height="6.646" transform="translate(0 171.425)"/><rect class="a" width="86.939" height="6.646" rx="3.323" transform="translate(21.969 144.23)"/><rect class="a" width="86.939" height="6.646" rx="3.323" transform="translate(20.837 45.764)"/><rect class="a" width="86.939" height="67.646" rx="5" transform="translate(21.624 65.399)"/></g><g transform="translate(5212.883 -5865.339) rotate(34)"><rect class="c" width="126.457" height="206.201" rx="6" transform="translate(0 0)"/><rect class="a" width="130.457" height="6.646" transform="translate(-3 28.13)"/><rect class="a" width="86.939" height="6.646" rx="3.323" transform="translate(18.969 55.325)"/><rect class="a" width="86.939" height="6.646" rx="3.323" transform="translate(17.837 153.792)"/><rect class="a" width="86.939" height="67.646" rx="5" transform="translate(18.624 73.156)"/></g><g transform="translate(3803.549 -5696.068) rotate(146)"><rect class="c" width="126.457" height="206.201" rx="6" transform="translate(3 0)"/><rect class="a" width="130.457" height="6.646" transform="translate(0 171.425)"/><rect class="a" width="86.939" height="6.646" rx="3.323" transform="translate(21.969 144.23)"/><rect class="a" width="86.939" height="6.646" rx="3.323" transform="translate(20.837 45.764)"/><rect class="a" width="86.939" height="67.646" rx="5" transform="translate(21.624 65.399)"/></g></g></svg>