<svg xmlns="http://www.w3.org/2000/svg" xmlns:xlink="http://www.w3.org/1999/xlink" width="1366" height="398" viewBox="0 0 1366 398">
  <defs>
    <clipPath id="clip-path">
      <rect id="Retângulo_529" data-name="Retângulo 529" width="507" height="398" transform="translate(0 143)" fill="#fff" stroke="#707070" stroke-width="1"/>
    </clipPath>
    <clipPath id="clip-path-2">
      <rect id="Retângulo_602" data-name="Retângulo 602" width="507" height="398" fill="#fff" stroke="#707070" stroke-width="1"/>
    </clipPath>
  </defs>
  <g id="Grupo_351" data-name="Grupo 351" transform="translate(7612 1210)">
    <rect id="Background_Search_" data-name="Background Search " width="1366" height="398" transform="translate(-7612 -1210)" fill="#e9f7ff"/>
    <g id="Illustration_Search_Bar" data-name="Illustration Search Bar" transform="translate(-7612 -1353)" opacity="0.75" clip-path="url(#clip-path)">
      <g id="Grupo_272" data-name="Grupo 272" transform="translate(2147.456 -88.244)">
        <path id="Caminho_246" data-name="Caminho 246" d="M-1773.785,524.765a25.854,25.854,0,0,0,35.843,7.229,25.854,25.854,0,0,0,7.229-35.842" transform="translate(37.571 41.466)" fill="#b0e1fe" opacity="0.363"/>
        <path id="Caminho_247" data-name="Caminho 247" d="M-1694.978,548.464a25.855,25.855,0,0,0-35.843-7.229,25.855,25.855,0,0,0-7.229,35.843" transform="translate(30.449 32.225)" fill="#b0e1fe" opacity="0.363"/>
        <path id="Caminho_248" data-name="Caminho 248" d="M-1959.272,232.695l46.094-31.256c18.066,26.645,12.076,62.237-13.38,79.5Z" transform="translate(16.583 2.675)" fill="#bfe8fe"/>
        <g id="Grupo_268" data-name="Grupo 268" transform="translate(-1997.571 416.728)">
          <path id="Caminho_249" data-name="Caminho 249" d="M-2002.26,475.311l40.661-28.14c.018.027.032.056.052.082a11.8,11.8,0,0,0,16.442,2.854,11.8,11.8,0,0,0,2.9-16.36l37.079-25.661a21.71,21.71,0,0,1,30.205,5.5l22.179,32.048c-.027.018-.056.032-.082.051a11.8,11.8,0,0,0-2.854,16.442,11.8,11.8,0,0,0,16.36,2.905L-1734.4,616.617a21.709,21.709,0,0,1-5.5,30.2l-97.139,67.226a21.708,21.708,0,0,1-30.2-5.5l-99.874-144.314-5.033-7.274-13.426-19.4-1.644-2.377-20.535-29.671A21.71,21.71,0,0,1-2002.26,475.311Z" transform="translate(2011.616 -404.226)" fill="#b0e1fe"/>
          <rect id="Retângulo_457" data-name="Retângulo 457" width="5.065" height="47.952" transform="translate(249.816 214.068) rotate(145.314)" fill="#bfe8fe"/>
          <rect id="Retângulo_458" data-name="Retângulo 458" width="5.065" height="47.952" transform="translate(210.911 240.993) rotate(145.314)" fill="#bfe8fe"/>
          <rect id="Retângulo_459" data-name="Retângulo 459" width="2.533" height="47.952" transform="translate(243.36 218.536) rotate(145.314)" fill="#bfe8fe"/>
          <rect id="Retângulo_460" data-name="Retângulo 460" width="2.533" height="47.952" transform="translate(231.035 227.066) rotate(145.314)" fill="#bfe8fe"/>
          <rect id="Retângulo_461" data-name="Retângulo 461" width="2.533" height="47.952" transform="translate(226.533 230.182) rotate(145.314)" fill="#bfe8fe"/>
          <rect id="Retângulo_462" data-name="Retângulo 462" width="2.533" height="47.952" transform="translate(222.032 233.297) rotate(145.314)" fill="#bfe8fe"/>
          <rect id="Retângulo_463" data-name="Retângulo 463" width="1.266" height="47.952" transform="translate(204.496 245.433) rotate(145.314)" fill="#bfe8fe"/>
          <rect id="Retângulo_464" data-name="Retângulo 464" width="5.93" height="47.952" transform="translate(238.555 221.862) rotate(145.314)" fill="#bfe8fe"/>
          <rect id="Retângulo_465" data-name="Retângulo 465" width="5.93" height="47.952" transform="translate(217.655 236.326) rotate(145.314)" fill="#bfe8fe"/>
          <rect id="Retângulo_466" data-name="Retângulo 466" width="5.065" height="47.952" transform="translate(200.789 247.998) rotate(145.314)" fill="#bfe8fe"/>
          <rect id="Retângulo_467" data-name="Retângulo 467" width="5.065" height="47.952" transform="translate(161.883 274.923) rotate(145.314)" fill="#bfe8fe"/>
          <rect id="Retângulo_468" data-name="Retângulo 468" width="2.533" height="47.952" transform="translate(194.333 252.466) rotate(145.314)" fill="#bfe8fe"/>
          <rect id="Retângulo_469" data-name="Retângulo 469" width="2.533" height="47.952" transform="translate(182.007 260.996) rotate(145.314)" fill="#bfe8fe"/>
          <rect id="Retângulo_470" data-name="Retângulo 470" width="2.533" height="47.952" transform="translate(177.506 264.112) rotate(145.314)" fill="#bfe8fe"/>
          <rect id="Retângulo_471" data-name="Retângulo 471" width="2.533" height="47.952" transform="translate(173.004 267.227) rotate(145.314)" fill="#bfe8fe"/>
          <rect id="Retângulo_472" data-name="Retângulo 472" width="1.266" height="47.952" transform="translate(155.468 279.363) rotate(145.314)" fill="#bfe8fe"/>
          <rect id="Retângulo_473" data-name="Retângulo 473" width="5.93" height="47.952" transform="translate(189.528 255.792) rotate(145.314)" fill="#bfe8fe"/>
          <rect id="Retângulo_474" data-name="Retângulo 474" width="5.93" height="47.952" transform="translate(168.628 270.256) rotate(145.314)" fill="#bfe8fe"/>
          <circle id="Elipse_185" data-name="Elipse 185" cx="5.967" cy="5.967" r="5.967" transform="translate(200.196 155.509)" fill="#bfe8fe"/>
          <circle id="Elipse_186" data-name="Elipse 186" cx="5.967" cy="5.967" r="5.967" transform="translate(171.67 175.25)" fill="#bfe8fe"/>
          <circle id="Elipse_187" data-name="Elipse 187" cx="5.967" cy="5.967" r="5.967" transform="translate(143.145 194.992)" fill="#bfe8fe"/>
          <circle id="Elipse_188" data-name="Elipse 188" cx="5.967" cy="5.967" r="5.967" transform="translate(114.62 214.733)" fill="#bfe8fe"/>
          <path id="Caminho_250" data-name="Caminho 250" d="M-2002.26,475.311l40.661-28.14c.018.027.032.056.052.082a11.8,11.8,0,0,0,16.442,2.854,11.8,11.8,0,0,0,2.9-16.36l37.079-25.661a21.71,21.71,0,0,1,30.205,5.5l22.179,32.048c-.027.018-.056.032-.082.051s-.036.029-.056.043l.137-.094,7.409,10.707-9.648,6.677-6.253,4.328-107.291,74.252a11.942,11.942,0,0,0-.7-1.126,11.8,11.8,0,0,0-16.36-2.9l-22.179-32.048A21.71,21.71,0,0,1-2002.26,475.311Z" transform="translate(2011.616 -404.226)" fill="#bfe8fe"/>
          <path id="star" d="M-1911.888,491.485l9.7,1.731-7.269,6.649,1.36,9.758-8.577-4.858-8.862,4.311,1.969-9.654-6.838-7.092,9.792-1.119,4.64-8.695Z" transform="translate(2015.552 -400.432)" fill="#e9f7ff"/>
        </g>
        <g id="Grupo_269" data-name="Grupo 269" transform="translate(-2182.883 146.243)" opacity="0.75">
          <path id="Caminho_251" data-name="Caminho 251" d="M-2179.007,217.329l40.66-28.14c.019.026.033.055.052.082a11.8,11.8,0,0,0,16.442,2.853,11.8,11.8,0,0,0,2.905-16.36l37.079-25.66a21.708,21.708,0,0,1,30.2,5.5l22.18,32.047c-.027.019-.055.034-.082.052a11.8,11.8,0,0,0-2.854,16.442,11.8,11.8,0,0,0,16.36,2.9l104.908,151.589a21.708,21.708,0,0,1-5.5,30.2l-97.139,67.226a21.709,21.709,0,0,1-30.2-5.5l-99.874-144.314-5.034-7.274-13.425-19.4-1.644-2.376-20.535-29.672A21.708,21.708,0,0,1-2179.007,217.329Z" transform="translate(2188.364 -146.243)" fill="#b0e1fe"/>
          <rect id="Retângulo_475" data-name="Retângulo 475" width="5.065" height="47.952" transform="translate(249.817 214.068) rotate(145.314)" fill="#bfe8fe"/>
          <rect id="Retângulo_476" data-name="Retângulo 476" width="5.065" height="47.952" transform="translate(210.911 240.993) rotate(145.314)" fill="#bfe8fe"/>
          <rect id="Retângulo_477" data-name="Retângulo 477" width="2.533" height="47.952" transform="translate(243.36 218.537) rotate(145.314)" fill="#bfe8fe"/>
          <rect id="Retângulo_478" data-name="Retângulo 478" width="2.533" height="47.952" transform="translate(231.035 227.066) rotate(145.314)" fill="#bfe8fe"/>
          <rect id="Retângulo_479" data-name="Retângulo 479" width="2.533" height="47.952" transform="translate(226.533 230.182) rotate(145.314)" fill="#bfe8fe"/>
          <rect id="Retângulo_480" data-name="Retângulo 480" width="2.533" height="47.952" transform="translate(222.032 233.297) rotate(145.314)" fill="#bfe8fe"/>
          <rect id="Retângulo_481" data-name="Retângulo 481" width="1.266" height="47.952" transform="translate(204.496 245.433) rotate(145.314)" fill="#bfe8fe"/>
          <rect id="Retângulo_482" data-name="Retângulo 482" width="5.93" height="47.952" transform="translate(238.555 221.862) rotate(145.314)" fill="#bfe8fe"/>
          <rect id="Retângulo_483" data-name="Retângulo 483" width="5.93" height="47.952" transform="translate(217.655 236.326) rotate(145.314)" fill="#bfe8fe"/>
          <rect id="Retângulo_484" data-name="Retângulo 484" width="5.065" height="47.952" transform="translate(200.789 247.998) rotate(145.314)" fill="#bfe8fe"/>
          <rect id="Retângulo_485" data-name="Retângulo 485" width="5.065" height="47.952" transform="translate(161.883 274.923) rotate(145.314)" fill="#bfe8fe"/>
          <rect id="Retângulo_486" data-name="Retângulo 486" width="2.533" height="47.952" transform="translate(194.333 252.467) rotate(145.314)" fill="#bfe8fe"/>
          <rect id="Retângulo_487" data-name="Retângulo 487" width="2.533" height="47.952" transform="translate(182.007 260.997) rotate(145.314)" fill="#bfe8fe"/>
          <rect id="Retângulo_488" data-name="Retângulo 488" width="2.533" height="47.952" transform="translate(177.506 264.112) rotate(145.314)" fill="#bfe8fe"/>
          <rect id="Retângulo_489" data-name="Retângulo 489" width="2.533" height="47.952" transform="translate(173.004 267.227) rotate(145.314)" fill="#bfe8fe"/>
          <rect id="Retângulo_490" data-name="Retângulo 490" width="1.266" height="47.952" transform="translate(155.469 279.363) rotate(145.314)" fill="#bfe8fe"/>
          <rect id="Retângulo_491" data-name="Retângulo 491" width="5.93" height="47.952" transform="translate(189.528 255.792) rotate(145.314)" fill="#bfe8fe"/>
          <rect id="Retângulo_492" data-name="Retângulo 492" width="5.93" height="47.952" transform="translate(168.628 270.256) rotate(145.314)" fill="#bfe8fe"/>
          <circle id="Elipse_189" data-name="Elipse 189" cx="5.967" cy="5.967" r="5.967" transform="translate(200.196 155.509)" fill="#bfe8fe"/>
          <circle id="Elipse_190" data-name="Elipse 190" cx="5.967" cy="5.967" r="5.967" transform="translate(171.671 175.251)" fill="#bfe8fe"/>
          <circle id="Elipse_191" data-name="Elipse 191" cx="5.967" cy="5.967" r="5.967" transform="translate(143.145 194.992)" fill="#bfe8fe"/>
          <circle id="Elipse_192" data-name="Elipse 192" cx="5.967" cy="5.967" r="5.967" transform="translate(114.62 214.733)" fill="#bfe8fe"/>
          <path id="Caminho_252" data-name="Caminho 252" d="M-2179.007,217.329l40.66-28.14c.019.026.033.055.052.082a11.8,11.8,0,0,0,16.442,2.853,11.8,11.8,0,0,0,2.905-16.36l37.079-25.66a21.708,21.708,0,0,1,30.2,5.5l22.18,32.047c-.027.019-.055.034-.082.052s-.037.029-.056.043l.137-.1,7.409,10.708-9.648,6.677-6.253,4.328-107.292,74.252a11.579,11.579,0,0,0-.7-1.126,11.8,11.8,0,0,0-16.36-2.905l-22.179-32.048A21.708,21.708,0,0,1-2179.007,217.329Z" transform="translate(2188.364 -146.243)" fill="#bfe8fe"/>
          <path id="star-2" data-name="star" d="M-2088.635,233.5l9.7,1.731-7.269,6.649,1.36,9.758-8.577-4.858-8.862,4.311,1.969-9.654-6.839-7.092,9.793-1.119,4.638-8.695Z" transform="translate(2192.299 -142.449)" fill="#e9f7ff"/>
        </g>
        <g id="Grupo_270" data-name="Grupo 270" transform="translate(-2116.143 596.088)">
          <path id="Caminho_253" data-name="Caminho 253" d="M-2115.352,646.382l40.661-28.14c.018.026.032.054.052.082a11.8,11.8,0,0,0,16.442,2.853,11.8,11.8,0,0,0,2.9-16.36l37.078-25.661a21.71,21.71,0,0,1,30.205,5.5l22.179,32.048c-.027.019-.056.033-.082.051a11.8,11.8,0,0,0-2.854,16.442,11.8,11.8,0,0,0,16.36,2.905L-1847.5,787.688a21.709,21.709,0,0,1-5.5,30.2l-97.139,67.225a21.707,21.707,0,0,1-30.2-5.5l-99.874-144.315-5.034-7.273-13.426-19.4-1.644-2.376-20.535-29.672A21.709,21.709,0,0,1-2115.352,646.382Z" transform="translate(2124.708 -575.296)" fill="#b0e1fe"/>
          <rect id="Retângulo_493" data-name="Retângulo 493" width="5.065" height="47.952" transform="translate(249.816 214.069) rotate(145.314)" fill="#bfe8fe"/>
          <rect id="Retângulo_494" data-name="Retângulo 494" width="5.065" height="47.952" transform="translate(210.911 240.994) rotate(145.314)" fill="#bfe8fe"/>
          <rect id="Retângulo_495" data-name="Retângulo 495" width="2.533" height="47.952" transform="translate(243.36 218.537) rotate(145.314)" fill="#bfe8fe"/>
          <rect id="Retângulo_496" data-name="Retângulo 496" width="2.533" height="47.952" transform="translate(231.035 227.067) rotate(145.314)" fill="#bfe8fe"/>
          <rect id="Retângulo_497" data-name="Retângulo 497" width="2.533" height="47.952" transform="translate(226.533 230.182) rotate(145.314)" fill="#bfe8fe"/>
          <rect id="Retângulo_498" data-name="Retângulo 498" width="2.533" height="47.952" transform="translate(222.032 233.297) rotate(145.314)" fill="#bfe8fe"/>
          <rect id="Retângulo_499" data-name="Retângulo 499" width="1.266" height="47.952" transform="translate(204.496 245.433) rotate(145.314)" fill="#bfe8fe"/>
          <rect id="Retângulo_500" data-name="Retângulo 500" width="5.93" height="47.952" transform="translate(238.555 221.862) rotate(145.314)" fill="#bfe8fe"/>
          <rect id="Retângulo_501" data-name="Retângulo 501" width="5.93" height="47.952" transform="translate(217.655 236.326) rotate(145.314)" fill="#bfe8fe"/>
          <rect id="Retângulo_502" data-name="Retângulo 502" width="5.065" height="47.952" transform="translate(200.789 247.999) rotate(145.314)" fill="#bfe8fe"/>
          <rect id="Retângulo_503" data-name="Retângulo 503" width="5.065" height="47.952" transform="translate(161.883 274.924) rotate(145.314)" fill="#bfe8fe"/>
          <rect id="Retângulo_504" data-name="Retângulo 504" width="2.533" height="47.952" transform="translate(194.333 252.467) rotate(145.314)" fill="#bfe8fe"/>
          <rect id="Retângulo_505" data-name="Retângulo 505" width="2.533" height="47.952" transform="translate(182.007 260.997) rotate(145.314)" fill="#bfe8fe"/>
          <rect id="Retângulo_506" data-name="Retângulo 506" width="2.533" height="47.952" transform="translate(177.506 264.112) rotate(145.314)" fill="#bfe8fe"/>
          <rect id="Retângulo_507" data-name="Retângulo 507" width="2.533" height="47.952" transform="translate(173.004 267.227) rotate(145.314)" fill="#bfe8fe"/>
          <rect id="Retângulo_508" data-name="Retângulo 508" width="1.266" height="47.952" transform="translate(155.468 279.363) rotate(145.314)" fill="#bfe8fe"/>
          <rect id="Retângulo_509" data-name="Retângulo 509" width="5.93" height="47.952" transform="translate(189.528 255.792) rotate(145.314)" fill="#bfe8fe"/>
          <rect id="Retângulo_510" data-name="Retângulo 510" width="5.93" height="47.952" transform="translate(168.628 270.256) rotate(145.314)" fill="#bfe8fe"/>
          <circle id="Elipse_193" data-name="Elipse 193" cx="5.967" cy="5.967" r="5.967" transform="translate(200.196 155.51)" fill="#bfe8fe"/>
          <circle id="Elipse_194" data-name="Elipse 194" cx="5.967" cy="5.967" r="5.967" transform="translate(171.67 175.251)" fill="#bfe8fe"/>
          <circle id="Elipse_195" data-name="Elipse 195" cx="5.967" cy="5.967" r="5.967" transform="translate(143.145 194.992)" fill="#bfe8fe"/>
          <circle id="Elipse_196" data-name="Elipse 196" cx="5.967" cy="5.967" r="5.967" transform="translate(114.62 214.733)" fill="#bfe8fe"/>
          <path id="Caminho_254" data-name="Caminho 254" d="M-2115.352,646.382l40.661-28.14c.018.026.032.054.052.082a11.8,11.8,0,0,0,16.442,2.853,11.8,11.8,0,0,0,2.9-16.36l37.078-25.661a21.71,21.71,0,0,1,30.205,5.5l22.179,32.048c-.027.019-.056.033-.082.051s-.036.029-.056.043l.137-.094,7.41,10.707-9.648,6.678-6.253,4.327-107.291,74.253a11.79,11.79,0,0,0-.7-1.126,11.8,11.8,0,0,0-16.36-2.905l-22.179-32.048A21.709,21.709,0,0,1-2115.352,646.382Z" transform="translate(2124.708 -575.296)" fill="#bfe8fe"/>
          <path id="star-3" data-name="star" d="M-2024.981,662.556l9.7,1.731-7.269,6.648,1.36,9.759-8.576-4.857-8.863,4.311,1.969-9.654-6.838-7.092,9.793-1.12,4.639-8.695Z" transform="translate(2128.644 -571.502)" fill="#e9f7ff"/>
        </g>
        <g id="Grupo_271" data-name="Grupo 271" transform="translate(-2301.456 325.604)">
          <path id="Caminho_255" data-name="Caminho 255" d="M-2292.1,388.4l40.661-28.141c.019.027.033.056.051.082a11.8,11.8,0,0,0,16.442,2.854,11.8,11.8,0,0,0,2.905-16.36l37.079-25.661a21.709,21.709,0,0,1,30.2,5.5l22.18,32.048c-.027.019-.056.033-.082.051a11.8,11.8,0,0,0-2.854,16.442,11.8,11.8,0,0,0,16.36,2.905L-2024.244,529.7a21.709,21.709,0,0,1-5.5,30.205l-97.138,67.225a21.708,21.708,0,0,1-30.2-5.5l-99.874-144.314-5.035-7.273-13.425-19.4-1.644-2.376L-2297.6,418.6A21.707,21.707,0,0,1-2292.1,388.4Z" transform="translate(2301.456 -317.314)" fill="#b0e1fe"/>
          <rect id="Retângulo_511" data-name="Retângulo 511" width="5.065" height="47.952" transform="translate(249.816 214.069) rotate(145.314)" fill="#bfe8fe"/>
          <rect id="Retângulo_512" data-name="Retângulo 512" width="5.065" height="47.952" transform="translate(210.911 240.993) rotate(145.314)" fill="#bfe8fe"/>
          <rect id="Retângulo_513" data-name="Retângulo 513" width="2.533" height="47.952" transform="translate(243.36 218.537) rotate(145.314)" fill="#bfe8fe"/>
          <rect id="Retângulo_514" data-name="Retângulo 514" width="2.533" height="47.952" transform="translate(231.035 227.066) rotate(145.314)" fill="#bfe8fe"/>
          <rect id="Retângulo_515" data-name="Retângulo 515" width="2.533" height="47.952" transform="translate(226.533 230.182) rotate(145.314)" fill="#bfe8fe"/>
          <rect id="Retângulo_516" data-name="Retângulo 516" width="2.533" height="47.952" transform="translate(222.032 233.297) rotate(145.314)" fill="#bfe8fe"/>
          <rect id="Retângulo_517" data-name="Retângulo 517" width="1.266" height="47.952" transform="translate(204.496 245.433) rotate(145.314)" fill="#bfe8fe"/>
          <rect id="Retângulo_518" data-name="Retângulo 518" width="5.93" height="47.952" transform="translate(238.555 221.862) rotate(145.314)" fill="#bfe8fe"/>
          <rect id="Retângulo_519" data-name="Retângulo 519" width="5.93" height="47.952" transform="translate(217.656 236.326) rotate(145.314)" fill="#bfe8fe"/>
          <rect id="Retângulo_520" data-name="Retângulo 520" width="5.065" height="47.952" transform="translate(200.789 247.998) rotate(145.314)" fill="#bfe8fe"/>
          <rect id="Retângulo_521" data-name="Retângulo 521" width="5.065" height="47.952" transform="translate(161.883 274.924) rotate(145.314)" fill="#bfe8fe"/>
          <rect id="Retângulo_522" data-name="Retângulo 522" width="2.533" height="47.952" transform="translate(194.333 252.467) rotate(145.314)" fill="#bfe8fe"/>
          <rect id="Retângulo_523" data-name="Retângulo 523" width="2.533" height="47.952" transform="translate(182.007 260.997) rotate(145.314)" fill="#bfe8fe"/>
          <rect id="Retângulo_524" data-name="Retângulo 524" width="2.533" height="47.952" transform="translate(177.506 264.112) rotate(145.314)" fill="#bfe8fe"/>
          <rect id="Retângulo_525" data-name="Retângulo 525" width="2.533" height="47.952" transform="translate(173.004 267.227) rotate(145.314)" fill="#bfe8fe"/>
          <rect id="Retângulo_526" data-name="Retângulo 526" width="1.266" height="47.952" transform="translate(155.469 279.363) rotate(145.314)" fill="#bfe8fe"/>
          <rect id="Retângulo_527" data-name="Retângulo 527" width="5.93" height="47.952" transform="translate(189.528 255.792) rotate(145.314)" fill="#bfe8fe"/>
          <rect id="Retângulo_528" data-name="Retângulo 528" width="5.93" height="47.952" transform="translate(168.628 270.256) rotate(145.314)" fill="#bfe8fe"/>
          <circle id="Elipse_197" data-name="Elipse 197" cx="5.967" cy="5.967" r="5.967" transform="translate(200.196 155.51)" fill="#bfe8fe"/>
          <circle id="Elipse_198" data-name="Elipse 198" cx="5.967" cy="5.967" r="5.967" transform="translate(171.671 175.251)" fill="#bfe8fe"/>
          <circle id="Elipse_199" data-name="Elipse 199" cx="5.967" cy="5.967" r="5.967" transform="translate(143.145 194.992)" fill="#bfe8fe"/>
          <circle id="Elipse_200" data-name="Elipse 200" cx="5.967" cy="5.967" r="5.967" transform="translate(114.62 214.733)" fill="#bfe8fe"/>
          <path id="Caminho_256" data-name="Caminho 256" d="M-2292.1,388.4l40.661-28.141c.019.027.033.056.051.082a11.8,11.8,0,0,0,16.442,2.854,11.8,11.8,0,0,0,2.905-16.36l37.079-25.661a21.709,21.709,0,0,1,30.2,5.5l22.18,32.048c-.027.019-.056.033-.082.051s-.037.029-.056.043l.137-.094,7.409,10.707-9.648,6.678-6.253,4.327-107.292,74.252a11.753,11.753,0,0,0-.7-1.125,11.8,11.8,0,0,0-16.36-2.905L-2297.6,418.6A21.707,21.707,0,0,1-2292.1,388.4Z" transform="translate(2301.456 -317.314)" fill="#bfe8fe"/>
          <path id="star-4" data-name="star" d="M-2201.728,404.573l9.7,1.731-7.269,6.649,1.359,9.759-8.577-4.859-8.862,4.311,1.969-9.654-6.839-7.091,9.794-1.12,4.638-8.695Z" transform="translate(2305.392 -313.52)" fill="#e9f7ff"/>
        </g>
      </g>
    </g>
    <g id="Illustration_Search_Bar-2" data-name="Illustration Search Bar" transform="translate(-6753 -1210)" opacity="0.75" clip-path="url(#clip-path-2)">
      <g id="Grupo_277" data-name="Grupo 277" transform="translate(9.702 -85.001)">
        <path id="Caminho_268" data-name="Caminho 268" d="M-1709.354,535.052a35.149,35.149,0,0,1-48.728,9.827,35.15,35.15,0,0,1-9.827-48.728" transform="translate(2008.96 -455.418)" fill="#b0e1fe" opacity="0.25"/>
        <path id="Caminho_269" data-name="Caminho 269" d="M-1742.371,552.617a35.15,35.15,0,0,1,48.728-9.828,35.15,35.15,0,0,1,9.827,48.729" transform="translate(1944.522 -453.328)" fill="#b0e1fe" opacity="0.25"/>
        <path id="Caminho_259" data-name="Caminho 259" d="M-1914.248,226.335l-36.714-24.9c-14.39,21.223-9.619,49.573,10.658,63.322Z" transform="translate(1995.851 189.096)" fill="#bfe8fe"/>
        <g id="Grupo_273" data-name="Grupo 273" transform="translate(64.767 271.212)">
          <path id="Caminho_260" data-name="Caminho 260" d="M-1739.17,475.5l-40.771-28.215c-.018.027-.032.056-.052.082a11.832,11.832,0,0,1-16.486,2.862,11.829,11.829,0,0,1-2.912-16.4l-37.179-25.73a21.768,21.768,0,0,0-30.286,5.512l-22.239,32.135c.027.018.056.033.082.052a11.832,11.832,0,0,1,2.861,16.486,11.83,11.83,0,0,1-16.4,2.913l-105.191,152a21.767,21.767,0,0,0,5.512,30.285l97.4,67.407a21.767,21.767,0,0,0,30.285-5.512l100.143-144.7,5.047-7.294,13.462-19.45,1.648-2.383,20.59-29.751A21.769,21.769,0,0,0-1739.17,475.5Z" transform="translate(2011.616 -404.226)" fill="#b0e1fe"/>
          <rect id="Retângulo_530" data-name="Retângulo 530" width="5.079" height="48.082" transform="translate(58.701 175.107) rotate(34.686)" fill="#bfe8fe"/>
          <rect id="Retângulo_531" data-name="Retângulo 531" width="5.079" height="48.082" transform="translate(97.711 202.105) rotate(34.686)" fill="#bfe8fe"/>
          <rect id="Retângulo_532" data-name="Retângulo 532" width="2.539" height="48.082" transform="translate(65.175 179.588) rotate(34.686)" fill="#bfe8fe"/>
          <rect id="Retângulo_533" data-name="Retângulo 533" width="2.539" height="48.082" transform="translate(77.534 188.14) rotate(34.686)" fill="#bfe8fe"/>
          <rect id="Retângulo_534" data-name="Retângulo 534" width="2.539" height="48.082" transform="translate(82.047 191.264) rotate(34.686)" fill="#bfe8fe"/>
          <rect id="Retângulo_535" data-name="Retângulo 535" width="2.539" height="48.082" transform="translate(86.561 194.388) rotate(34.686)" fill="#bfe8fe"/>
          <rect id="Retângulo_536" data-name="Retângulo 536" width="1.27" height="48.082" transform="translate(104.144 206.556) rotate(34.686)" fill="#bfe8fe"/>
          <rect id="Retângulo_537" data-name="Retângulo 537" width="5.946" height="48.082" transform="translate(69.993 182.922) rotate(34.686)" fill="#bfe8fe"/>
          <rect id="Retângulo_538" data-name="Retângulo 538" width="5.946" height="48.082" transform="translate(90.949 197.425) rotate(34.686)" fill="#bfe8fe"/>
          <rect id="Retângulo_539" data-name="Retângulo 539" width="5.079" height="48.082" transform="translate(107.861 209.129) rotate(34.686)" fill="#bfe8fe"/>
          <rect id="Retângulo_540" data-name="Retângulo 540" width="5.079" height="48.082" transform="translate(146.871 236.126) rotate(34.686)" fill="#bfe8fe"/>
          <rect id="Retângulo_541" data-name="Retângulo 541" width="2.539" height="48.082" transform="translate(114.334 213.609) rotate(34.686)" fill="#bfe8fe"/>
          <rect id="Retângulo_542" data-name="Retângulo 542" width="2.539" height="48.082" transform="translate(126.693 222.162) rotate(34.686)" fill="#bfe8fe"/>
          <rect id="Retângulo_543" data-name="Retângulo 543" width="2.539" height="48.082" transform="translate(131.207 225.286) rotate(34.686)" fill="#bfe8fe"/>
          <rect id="Retângulo_544" data-name="Retângulo 544" width="2.539" height="48.082" transform="translate(135.72 228.409) rotate(34.686)" fill="#bfe8fe"/>
          <rect id="Retângulo_545" data-name="Retângulo 545" width="1.27" height="48.082" transform="translate(153.303 240.578) rotate(34.686)" fill="#bfe8fe"/>
          <rect id="Retângulo_546" data-name="Retângulo 546" width="5.946" height="48.082" transform="translate(119.152 216.943) rotate(34.686)" fill="#bfe8fe"/>
          <rect id="Retângulo_547" data-name="Retângulo 547" width="5.946" height="48.082" transform="translate(140.108 231.446) rotate(34.686)" fill="#bfe8fe"/>
          <circle id="Elipse_201" data-name="Elipse 201" cx="5.983" cy="5.983" r="5.983" transform="translate(69.127 155.928)" fill="#bfe8fe"/>
          <circle id="Elipse_202" data-name="Elipse 202" cx="5.983" cy="5.983" r="5.983" transform="translate(97.729 175.722)" fill="#bfe8fe"/>
          <circle id="Elipse_203" data-name="Elipse 203" cx="5.983" cy="5.983" r="5.983" transform="translate(126.331 195.516)" fill="#bfe8fe"/>
          <circle id="Elipse_204" data-name="Elipse 204" cx="5.983" cy="5.983" r="5.983" transform="translate(154.933 215.311)" fill="#bfe8fe"/>
          <path id="Caminho_261" data-name="Caminho 261" d="M-1854.262,475.5l-40.771-28.215c-.018.027-.032.056-.052.082a11.832,11.832,0,0,1-16.486,2.862,11.829,11.829,0,0,1-2.912-16.4l-37.179-25.73a21.768,21.768,0,0,0-30.286,5.512l-22.239,32.135c.027.018.056.033.082.052s.036.029.056.043l-.138-.095-7.429,10.736,9.674,6.695,6.27,4.34,107.58,74.452a11.972,11.972,0,0,1,.7-1.129,11.828,11.828,0,0,1,16.4-2.912l22.239-32.135A21.768,21.768,0,0,0-1854.262,475.5Z" transform="translate(2126.709 -404.226)" fill="#bfe8fe"/>
          <path id="star-5" data-name="star" d="M-1920.672,491.509l-9.729,1.736,7.288,6.667-1.364,9.784,8.6-4.871,8.886,4.323-1.974-9.68,6.856-7.111-9.819-1.122-4.652-8.718Z" transform="translate(2098.558 -400.211)" fill="#e9f7ff"/>
        </g>
        <g id="Grupo_274" data-name="Grupo 274" transform="translate(250.578)">
          <path id="Caminho_262" data-name="Caminho 262" d="M-1915.918,217.52l-40.77-28.215c-.019.026-.034.055-.052.082a11.831,11.831,0,0,1-16.486,2.861,11.828,11.828,0,0,1-2.913-16.4l-37.178-25.729a21.766,21.766,0,0,0-30.285,5.512l-22.24,32.133c.027.019.056.034.082.053A11.832,11.832,0,0,1-2062.9,204.3a11.829,11.829,0,0,1-16.4,2.912l-105.19,152a21.767,21.767,0,0,0,5.511,30.285l97.4,67.407a21.767,21.767,0,0,0,30.286-5.512l100.143-144.7,5.048-7.294,13.461-19.451,1.648-2.382,20.59-29.752A21.766,21.766,0,0,0-1915.918,217.52Z" transform="translate(2188.364 -146.243)" fill="#b0e1fe"/>
          <rect id="Retângulo_548" data-name="Retângulo 548" width="5.079" height="48.082" transform="translate(58.701 175.108) rotate(34.686)" fill="#bfe8fe"/>
          <rect id="Retângulo_549" data-name="Retângulo 549" width="5.079" height="48.082" transform="translate(97.711 202.105) rotate(34.686)" fill="#bfe8fe"/>
          <rect id="Retângulo_550" data-name="Retângulo 550" width="2.539" height="48.082" transform="translate(65.175 179.588) rotate(34.686)" fill="#bfe8fe"/>
          <rect id="Retângulo_551" data-name="Retângulo 551" width="2.539" height="48.082" transform="translate(77.533 188.141) rotate(34.686)" fill="#bfe8fe"/>
          <rect id="Retângulo_552" data-name="Retângulo 552" width="2.539" height="48.082" transform="translate(82.047 191.264) rotate(34.686)" fill="#bfe8fe"/>
          <rect id="Retângulo_553" data-name="Retângulo 553" width="2.539" height="48.082" transform="translate(86.561 194.388) rotate(34.686)" fill="#bfe8fe"/>
          <rect id="Retângulo_554" data-name="Retângulo 554" width="1.27" height="48.082" transform="translate(104.143 206.557) rotate(34.686)" fill="#bfe8fe"/>
          <rect id="Retângulo_555" data-name="Retângulo 555" width="5.946" height="48.082" transform="translate(69.993 182.922) rotate(34.686)" fill="#bfe8fe"/>
          <rect id="Retângulo_556" data-name="Retângulo 556" width="5.946" height="48.082" transform="translate(90.949 197.425) rotate(34.686)" fill="#bfe8fe"/>
          <rect id="Retângulo_557" data-name="Retângulo 557" width="5.079" height="48.082" transform="translate(107.861 209.129) rotate(34.686)" fill="#bfe8fe"/>
          <rect id="Retângulo_558" data-name="Retângulo 558" width="5.079" height="48.082" transform="translate(146.871 236.126) rotate(34.686)" fill="#bfe8fe"/>
          <rect id="Retângulo_559" data-name="Retângulo 559" width="2.539" height="48.082" transform="translate(114.334 213.609) rotate(34.686)" fill="#bfe8fe"/>
          <rect id="Retângulo_560" data-name="Retângulo 560" width="2.539" height="48.082" transform="translate(126.693 222.162) rotate(34.686)" fill="#bfe8fe"/>
          <rect id="Retângulo_561" data-name="Retângulo 561" width="2.539" height="48.082" transform="translate(131.206 225.286) rotate(34.686)" fill="#bfe8fe"/>
          <rect id="Retângulo_562" data-name="Retângulo 562" width="2.539" height="48.082" transform="translate(135.72 228.41) rotate(34.686)" fill="#bfe8fe"/>
          <rect id="Retângulo_563" data-name="Retângulo 563" width="1.27" height="48.082" transform="translate(153.303 240.578) rotate(34.686)" fill="#bfe8fe"/>
          <rect id="Retângulo_564" data-name="Retângulo 564" width="5.946" height="48.082" transform="translate(119.152 216.944) rotate(34.686)" fill="#bfe8fe"/>
          <rect id="Retângulo_565" data-name="Retângulo 565" width="5.946" height="48.082" transform="translate(140.108 231.446) rotate(34.686)" fill="#bfe8fe"/>
          <circle id="Elipse_205" data-name="Elipse 205" cx="5.983" cy="5.983" r="5.983" transform="translate(69.127 155.928)" fill="#bfe8fe"/>
          <circle id="Elipse_206" data-name="Elipse 206" cx="5.983" cy="5.983" r="5.983" transform="translate(97.729 175.722)" fill="#bfe8fe"/>
          <circle id="Elipse_207" data-name="Elipse 207" cx="5.983" cy="5.983" r="5.983" transform="translate(126.331 195.517)" fill="#bfe8fe"/>
          <circle id="Elipse_208" data-name="Elipse 208" cx="5.983" cy="5.983" r="5.983" transform="translate(154.933 215.311)" fill="#bfe8fe"/>
          <path id="Caminho_263" data-name="Caminho 263" d="M-2031.01,217.52l-40.77-28.215c-.019.026-.033.055-.052.082a11.831,11.831,0,0,1-16.486,2.861,11.828,11.828,0,0,1-2.913-16.4l-37.178-25.729a21.766,21.766,0,0,0-30.285,5.512l-22.24,32.133c.027.019.056.034.082.053s.037.029.056.043l-.138-.1-7.429,10.737,9.674,6.695,6.27,4.34,107.581,74.452a11.587,11.587,0,0,1,.7-1.129,11.83,11.83,0,0,1,16.4-2.913l22.239-32.135A21.766,21.766,0,0,0-2031.01,217.52Z" transform="translate(2303.456 -146.243)" fill="#bfe8fe"/>
          <path id="star-6" data-name="star" d="M-2097.42,233.527l-9.729,1.736,7.288,6.667-1.363,9.784,8.6-4.871,8.885,4.323-1.974-9.68,6.857-7.111-9.82-1.122-4.651-8.718Z" transform="translate(2275.305 -142.228)" fill="#e9f7ff"/>
        </g>
        <g id="Grupo_275" data-name="Grupo 275" transform="translate(183.658 451.055)">
          <path id="Caminho_264" data-name="Caminho 264" d="M-1852.262,646.573l-40.771-28.215c-.018.026-.033.055-.052.082a11.831,11.831,0,0,1-16.486,2.861,11.829,11.829,0,0,1-2.912-16.4l-37.178-25.73a21.768,21.768,0,0,0-30.286,5.512l-22.239,32.135c.027.019.056.033.082.052a11.832,11.832,0,0,1,2.862,16.486,11.829,11.829,0,0,1-16.4,2.913l-105.191,152a21.767,21.767,0,0,0,5.512,30.285l97.4,67.406a21.766,21.766,0,0,0,30.285-5.511l100.143-144.7,5.047-7.293,13.462-19.451,1.648-2.382,20.591-29.752A21.767,21.767,0,0,0-1852.262,646.573Z" transform="translate(2124.708 -575.296)" fill="#b0e1fe"/>
          <rect id="Retângulo_566" data-name="Retângulo 566" width="5.079" height="48.082" transform="translate(58.701 175.108) rotate(34.686)" fill="#bfe8fe"/>
          <rect id="Retângulo_567" data-name="Retângulo 567" width="5.079" height="48.082" transform="translate(97.711 202.105) rotate(34.686)" fill="#bfe8fe"/>
          <rect id="Retângulo_568" data-name="Retângulo 568" width="2.539" height="48.082" transform="translate(65.175 179.588) rotate(34.686)" fill="#bfe8fe"/>
          <rect id="Retângulo_569" data-name="Retângulo 569" width="2.539" height="48.082" transform="translate(77.534 188.141) rotate(34.686)" fill="#bfe8fe"/>
          <rect id="Retângulo_570" data-name="Retângulo 570" width="2.539" height="48.082" transform="translate(82.047 191.265) rotate(34.686)" fill="#bfe8fe"/>
          <rect id="Retângulo_571" data-name="Retângulo 571" width="2.539" height="48.082" transform="translate(86.561 194.388) rotate(34.686)" fill="#bfe8fe"/>
          <rect id="Retângulo_572" data-name="Retângulo 572" width="1.27" height="48.082" transform="translate(104.144 206.557) rotate(34.686)" fill="#bfe8fe"/>
          <rect id="Retângulo_573" data-name="Retângulo 573" width="5.946" height="48.082" transform="translate(69.993 182.922) rotate(34.686)" fill="#bfe8fe"/>
          <rect id="Retângulo_574" data-name="Retângulo 574" width="5.946" height="48.082" transform="translate(90.949 197.425) rotate(34.686)" fill="#bfe8fe"/>
          <rect id="Retângulo_575" data-name="Retângulo 575" width="5.079" height="48.082" transform="translate(107.861 209.129) rotate(34.686)" fill="#bfe8fe"/>
          <rect id="Retângulo_576" data-name="Retângulo 576" width="5.079" height="48.082" transform="translate(146.871 236.127) rotate(34.686)" fill="#bfe8fe"/>
          <rect id="Retângulo_577" data-name="Retângulo 577" width="2.539" height="48.082" transform="translate(114.334 213.61) rotate(34.686)" fill="#bfe8fe"/>
          <rect id="Retângulo_578" data-name="Retângulo 578" width="2.539" height="48.082" transform="translate(126.693 222.162) rotate(34.686)" fill="#bfe8fe"/>
          <rect id="Retângulo_579" data-name="Retângulo 579" width="2.539" height="48.082" transform="translate(131.207 225.286) rotate(34.686)" fill="#bfe8fe"/>
          <rect id="Retângulo_580" data-name="Retângulo 580" width="2.539" height="48.082" transform="translate(135.72 228.41) rotate(34.686)" fill="#bfe8fe"/>
          <rect id="Retângulo_581" data-name="Retângulo 581" width="1.27" height="48.082" transform="translate(153.303 240.578) rotate(34.686)" fill="#bfe8fe"/>
          <rect id="Retângulo_582" data-name="Retângulo 582" width="5.946" height="48.082" transform="translate(119.152 216.944) rotate(34.686)" fill="#bfe8fe"/>
          <rect id="Retângulo_583" data-name="Retângulo 583" width="5.946" height="48.082" transform="translate(140.108 231.447) rotate(34.686)" fill="#bfe8fe"/>
          <circle id="Elipse_209" data-name="Elipse 209" cx="5.983" cy="5.983" r="5.983" transform="translate(69.127 155.928)" fill="#bfe8fe"/>
          <circle id="Elipse_210" data-name="Elipse 210" cx="5.983" cy="5.983" r="5.983" transform="translate(97.729 175.723)" fill="#bfe8fe"/>
          <circle id="Elipse_211" data-name="Elipse 211" cx="5.983" cy="5.983" r="5.983" transform="translate(126.331 195.517)" fill="#bfe8fe"/>
          <circle id="Elipse_212" data-name="Elipse 212" cx="5.983" cy="5.983" r="5.983" transform="translate(154.933 215.311)" fill="#bfe8fe"/>
          <path id="Caminho_265" data-name="Caminho 265" d="M-1967.354,646.573l-40.771-28.215c-.018.026-.032.055-.052.082a11.831,11.831,0,0,1-16.486,2.861,11.829,11.829,0,0,1-2.912-16.4l-37.178-25.73a21.768,21.768,0,0,0-30.286,5.512l-22.239,32.135c.027.019.056.033.082.052s.036.029.056.043l-.138-.095-7.429,10.736,9.674,6.7,6.27,4.339,107.58,74.453a11.756,11.756,0,0,1,.7-1.129,11.829,11.829,0,0,1,16.4-2.913l22.239-32.135A21.767,21.767,0,0,0-1967.354,646.573Z" transform="translate(2239.8 -575.296)" fill="#bfe8fe"/>
          <path id="star-7" data-name="star" d="M-2033.765,662.58l-9.73,1.736,7.289,6.666-1.363,9.785,8.6-4.871,8.886,4.323-1.974-9.68,6.856-7.111-9.819-1.123-4.652-8.718Z" transform="translate(2211.65 -571.281)" fill="#e9f7ff"/>
        </g>
        <g id="Grupo_276" data-name="Grupo 276" transform="translate(369.47 179.843)">
          <path id="Caminho_266" data-name="Caminho 266" d="M-2029.01,388.591l-40.77-28.216c-.019.027-.033.056-.052.082a11.832,11.832,0,0,1-16.486,2.862,11.828,11.828,0,0,1-2.913-16.4l-37.179-25.73a21.767,21.767,0,0,0-30.285,5.512l-22.24,32.135c.028.019.056.033.082.052a11.832,11.832,0,0,1,2.862,16.486,11.829,11.829,0,0,1-16.4,2.913l-105.19,152a21.768,21.768,0,0,0,5.512,30.286l97.4,67.406a21.766,21.766,0,0,0,30.286-5.512l100.143-144.7,5.048-7.293,13.461-19.451,1.648-2.382,20.59-29.752A21.766,21.766,0,0,0-2029.01,388.591Z" transform="translate(2301.456 -317.314)" fill="#b0e1fe"/>
          <rect id="Retângulo_584" data-name="Retângulo 584" width="5.079" height="48.082" transform="translate(58.701 175.108) rotate(34.686)" fill="#bfe8fe"/>
          <rect id="Retângulo_585" data-name="Retângulo 585" width="5.079" height="48.082" transform="translate(97.711 202.105) rotate(34.686)" fill="#bfe8fe"/>
          <rect id="Retângulo_586" data-name="Retângulo 586" width="2.539" height="48.082" transform="translate(65.175 179.588) rotate(34.686)" fill="#bfe8fe"/>
          <rect id="Retângulo_587" data-name="Retângulo 587" width="2.539" height="48.082" transform="translate(77.533 188.141) rotate(34.686)" fill="#bfe8fe"/>
          <rect id="Retângulo_588" data-name="Retângulo 588" width="2.539" height="48.082" transform="translate(82.047 191.265) rotate(34.686)" fill="#bfe8fe"/>
          <rect id="Retângulo_589" data-name="Retângulo 589" width="2.539" height="48.082" transform="translate(86.56 194.388) rotate(34.686)" fill="#bfe8fe"/>
          <rect id="Retângulo_590" data-name="Retângulo 590" width="1.27" height="48.082" transform="translate(104.144 206.557) rotate(34.686)" fill="#bfe8fe"/>
          <rect id="Retângulo_591" data-name="Retângulo 591" width="5.946" height="48.082" transform="translate(69.993 182.922) rotate(34.686)" fill="#bfe8fe"/>
          <rect id="Retângulo_592" data-name="Retângulo 592" width="5.946" height="48.082" transform="translate(90.949 197.425) rotate(34.686)" fill="#bfe8fe"/>
          <rect id="Retângulo_593" data-name="Retângulo 593" width="5.079" height="48.082" transform="translate(107.86 209.129) rotate(34.686)" fill="#bfe8fe"/>
          <rect id="Retângulo_594" data-name="Retângulo 594" width="5.079" height="48.082" transform="translate(146.871 236.127) rotate(34.686)" fill="#bfe8fe"/>
          <rect id="Retângulo_595" data-name="Retângulo 595" width="2.539" height="48.082" transform="translate(114.334 213.609) rotate(34.686)" fill="#bfe8fe"/>
          <rect id="Retângulo_596" data-name="Retângulo 596" width="2.539" height="48.082" transform="translate(126.693 222.162) rotate(34.686)" fill="#bfe8fe"/>
          <rect id="Retângulo_597" data-name="Retângulo 597" width="2.539" height="48.082" transform="translate(131.207 225.286) rotate(34.686)" fill="#bfe8fe"/>
          <rect id="Retângulo_598" data-name="Retângulo 598" width="2.539" height="48.082" transform="translate(135.72 228.41) rotate(34.686)" fill="#bfe8fe"/>
          <rect id="Retângulo_599" data-name="Retângulo 599" width="1.27" height="48.082" transform="translate(153.303 240.578) rotate(34.686)" fill="#bfe8fe"/>
          <rect id="Retângulo_600" data-name="Retângulo 600" width="5.946" height="48.082" transform="translate(119.152 216.944) rotate(34.686)" fill="#bfe8fe"/>
          <rect id="Retângulo_601" data-name="Retângulo 601" width="5.946" height="48.082" transform="translate(140.108 231.446) rotate(34.686)" fill="#bfe8fe"/>
          <circle id="Elipse_213" data-name="Elipse 213" cx="5.983" cy="5.983" r="5.983" transform="translate(69.127 155.928)" fill="#bfe8fe"/>
          <circle id="Elipse_214" data-name="Elipse 214" cx="5.983" cy="5.983" r="5.983" transform="translate(97.729 175.722)" fill="#bfe8fe"/>
          <circle id="Elipse_215" data-name="Elipse 215" cx="5.983" cy="5.983" r="5.983" transform="translate(126.331 195.517)" fill="#bfe8fe"/>
          <circle id="Elipse_216" data-name="Elipse 216" cx="5.983" cy="5.983" r="5.983" transform="translate(154.933 215.311)" fill="#bfe8fe"/>
          <path id="Caminho_267" data-name="Caminho 267" d="M-2144.1,388.591l-40.77-28.216c-.019.027-.033.056-.052.082a11.832,11.832,0,0,1-16.486,2.862,11.828,11.828,0,0,1-2.913-16.4l-37.178-25.73a21.767,21.767,0,0,0-30.285,5.512l-22.24,32.135c.028.019.056.033.082.052s.037.029.056.043l-.138-.095-7.429,10.736,9.674,6.7,6.27,4.339,107.581,74.452a11.757,11.757,0,0,1,.7-1.128,11.827,11.827,0,0,1,16.4-2.913l22.239-32.135A21.766,21.766,0,0,0-2144.1,388.591Z" transform="translate(2416.547 -317.314)" fill="#bfe8fe"/>
          <path id="star-8" data-name="star" d="M-2210.512,404.6l-9.73,1.736,7.289,6.667-1.363,9.785,8.6-4.872,8.885,4.323-1.974-9.68,6.857-7.11-9.82-1.123-4.651-8.718Z" transform="translate(2388.397 -313.299)" fill="#e9f7ff"/>
        </g>
      </g>
    </g>
  </g>
</svg>
