<svg xmlns="http://www.w3.org/2000/svg" xmlns:xlink="http://www.w3.org/1999/xlink" width="985" height="217" viewBox="0 0 985 217"><defs><style>.a{fill:#e9f7ff;}.b,.c,.e{fill:#bfe6fe;}.c{opacity:0.5;}.d{clip-path:url(#a);}.e{opacity:0.25;}</style><clipPath id="a"><rect class="a" width="985" height="216" rx="6" transform="translate(190 1231)"/></clipPath></defs><g transform="translate(-190 -1231)"><rect class="a" width="985" height="216" rx="6" transform="translate(190 1231)"/><path class="b" d="M6,0H162a0,0,0,0,1,0,0V124a0,0,0,0,1,0,0H0a0,0,0,0,1,0,0V6A6,6,0,0,1,6,0Z" transform="translate(190 1231)"/><rect class="c" width="164" height="72" transform="translate(276 1375)"/><rect class="b" width="170" height="104" transform="translate(934 1344)"/><g class="d"><rect class="c" width="188" height="72" transform="translate(68 1375)"/><rect class="e" width="188" height="124" transform="translate(1125 1232)"/><rect class="c" width="188" height="72" transform="translate(1125 1376)"/></g><path class="a" d="M-1920.672,491.509l-9.729,1.736,7.288,6.667-1.364,9.784,8.6-4.871,8.886,4.323-1.974-9.68,6.856-7.111-9.819-1.122-4.652-8.718Z" transform="translate(2935.027 900)"/><path class="a" d="M-1920.672,491.509l-9.729,1.736,7.288,6.667-1.364,9.784,8.6-4.871,8.886,4.323-1.974-9.68,6.856-7.111-9.819-1.122-4.652-8.718Z" transform="translate(2181.027 795)"/></g></svg>