<svg xmlns="http://www.w3.org/2000/svg" width="9.042" height="8.78" viewBox="0 0 9.042 8.78"><defs><style>.a{fill:#0091ff;}</style></defs><g transform="translate(-295.431 -849.38)"><path class="a" d="M1631.495,1064.809c-2.114,0-3.562.006-5.009,0-.571,0-1.211-.075-1.176-.813.034-.715.677-.763,1.248-.765,1.433,0,2.865,0,4.835,0-.981-1.123-1.592-1.768-2.135-2.467a.619.619,0,0,1,.227-.942c.2-.118.619-.2.738-.089,1.338,1.265,2.655,2.552,3.936,3.876.415.429.072.855-.255,1.187-1.1,1.117-2.207,2.23-3.333,3.323-.347.336-.758.532-1.191.064s-.182-.838.135-1.2C1630,1066.433,1630.5,1065.9,1631.495,1064.809Z" transform="translate(-1329.877 -210.296)"/></g></svg>