<?xml version="1.0" standalone="no"?>
<!DOCTYPE svg PUBLIC "-//W3C//DTD SVG 20010904//EN"
 "http://www.w3.org/TR/2001/REC-SVG-20010904/DTD/svg10.dtd">
<svg version="1.0" xmlns="http://www.w3.org/2000/svg"
 width="640.000000pt" height="640.000000pt" viewBox="0 0 640.000000 640.000000"
 preserveAspectRatio="xMidYMid meet">

<g transform="translate(0.000000,640.000000) scale(0.100000,-0.100000)"
fill="#000000" stroke="none">
<path d="M2906 5115 c-56 -20 -107 -65 -136 -121 l-25 -48 -5 -933 -5 -933
-280 281 c-213 213 -292 287 -330 305 -159 76 -335 -37 -336 -215 -1 -47 5
-71 26 -109 18 -34 183 -205 533 -555 505 -504 507 -505 567 -523 75 -21 144
-10 207 35 24 16 262 249 530 518 528 529 527 528 528 636 0 163 -151 272
-314 225 -34 -10 -89 -60 -336 -305 -163 -161 -299 -293 -303 -293 -4 0 -7
421 -7 935 l0 936 -25 49 c-53 105 -178 155 -289 115z"/>
<path d="M1221 2716 c-49 -18 -106 -70 -130 -119 -21 -42 -21 -55 -21 -583 l0
-540 25 -50 c30 -61 93 -110 161 -124 33 -7 610 -10 1759 -8 l1710 3 40 22
c22 12 54 36 72 55 64 67 63 53 63 643 l0 536 -25 49 c-52 103 -170 152 -286
120 -47 -13 -114 -72 -142 -124 -21 -40 -22 -50 -25 -433 l-3 -393 -1434 0
-1433 0 -4 388 c-4 439 -4 441 -84 510 -66 59 -161 78 -243 48z"/>
</g>
</svg>
