<svg xmlns="http://www.w3.org/2000/svg" width="16" height="24" viewBox="0 0 16 24">
  <g id="PH_Icon" data-name="PH Icon" transform="translate(5884 -0.001)" fill="none">
    <path d="M-5878.667,24H-5882a2,2,0,0,1-2-2V2a2,2,0,0,1,2-2h3.333a2.647,2.647,0,0,0,.781,1.884,2.653,2.653,0,0,0,1.886.781A2.669,2.669,0,0,0-5873.333,0H-5870a2,2,0,0,1,2,2V22a2,2,0,0,1-2,2h-3.333a2.65,2.65,0,0,0-.782-1.885,2.648,2.648,0,0,0-1.885-.782A2.67,2.67,0,0,0-5878.667,24Z" stroke="none"/>
    <path d="M -5880.21630859375 22.00116920471191 C -5879.4658203125 20.42548751831055 -5877.85791015625 19.3337345123291 -5875.99951171875 19.3337345123291 C -5874.75341796875 19.3337345123291 -5873.58203125 19.81959533691406 -5872.70068359375 20.70109367370605 C -5872.31689453125 21.08509254455566 -5872.0078125 21.52426528930664 -5871.78125 22.0006160736084 L -5870.0009765625 22.00059509277344 C -5870.0009765625 22.00045013427734 -5870.00048828125 22.00035858154297 -5870.00048828125 22.00035858154297 C -5870.00048828125 22.00035858154297 -5870.00048828125 22.00036239624023 -5870.00048828125 22.0003719329834 L -5869.9990234375 2.004244565963745 C -5869.99951171875 2.003484487533569 -5870.00048828125 2.002394914627075 -5870.00146484375 2.001474380493164 L -5871.783203125 2.001474380493164 C -5872.53369140625 3.57601523399353 -5874.1416015625 4.666904449462891 -5875.99951171875 4.666904449462891 C -5877.244140625 4.666904449462891 -5878.41552734375 4.182004451751709 -5879.2998046875 3.299834489822388 C -5879.68359375 2.915905714035034 -5879.9921875 2.476931571960449 -5880.21875 2.000915288925171 L -5881.9970703125 2.000274419784546 C -5881.998046875 2.000734567642212 -5881.9990234375 2.001766443252563 -5882 2.002810716629028 L -5882 21.99940490722656 C -5881.99951171875 21.99999237060547 -5881.9990234375 22.0004768371582 -5881.9990234375 22.00063514709473 L -5880.21630859375 22.00116920471191 M -5878.66650390625 24.00163459777832 L -5878.66748046875 24.00163459777832 L -5881.99951171875 24.00063514709473 C -5883.1025390625 24.00063514709473 -5884 23.10368537902832 -5884 22.00119400024414 L -5884 2.000914573669434 C -5884 0.898424506187439 -5883.1025390625 0.001474489108659327 -5881.99951171875 0.001474489108659327 L -5878.66650390625 0.001474489108659327 C -5878.66650390625 0.7129244804382324 -5878.38916015625 1.381744503974915 -5877.88525390625 1.885734438896179 C -5877.38037109375 2.389484405517578 -5876.7109375 2.666904449462891 -5875.99951171875 2.666904449462891 C -5874.52880859375 2.666904449462891 -5873.33251953125 1.471194505691528 -5873.33251953125 0.001474489108659327 L -5869.99951171875 0.001474489108659327 C -5868.8974609375 0.001474489108659327 -5868.00048828125 0.898424506187439 -5868.00048828125 2.000914573669434 L -5868.00048828125 22.00119400024414 C -5868.00048828125 23.10368537902832 -5868.8974609375 24.00063514709473 -5869.99951171875 24.00063514709473 L -5873.33251953125 24.00063514709473 C -5873.3330078125 23.28889465332031 -5873.6103515625 22.61979484558105 -5874.11474609375 22.11560440063477 C -5874.61865234375 21.61140441894531 -5875.2880859375 21.3337345123291 -5875.99951171875 21.3337345123291 C -5877.47021484375 21.3337345123291 -5878.66650390625 22.53010368347168 -5878.66650390625 24.00063514709473 L -5878.66650390625 24.00163459777832 Z" stroke="none" fill="#9fa09f"/>
  </g>
</svg>
