<svg enable-background="new 0 0 58 58" height="512" viewBox="0 0 58 58" width="512" xmlns="http://www.w3.org/2000/svg"><g fill="#ed8a19"><path d="m12.923 8.291c-.306 0-.608-.14-.804-.405-.329-.444-.235-1.07.208-1.399 4.847-3.59 10.599-5.487 16.634-5.487 5.503 0 10.97 1.584 15.039 4.302v-4.302c0-.552.448-1 1-1s1 .448 1 1v6.291c0 .388-.224.741-.575.905s-.765.113-1.064-.136c-3.814-3.168-9.571-5.06-15.4-5.06-5.603 0-10.944 1.762-15.444 5.095-.178.132-.387.196-.594.196z"/><path d="m7.292 46.078c-.306 0-.608-.14-.804-.405-3.591-4.847-5.488-10.599-5.488-16.634 0-5.503 1.584-10.97 4.302-15.039h-4.302c-.552 0-1-.448-1-1s.448-1 1-1h6.291c.388 0 .74.224.905.575s.112.766-.136 1.064c-3.168 3.814-5.06 9.57-5.06 15.4 0 5.603 1.762 10.943 5.095 15.443.329.444.235 1.07-.208 1.399-.18.133-.388.197-.595.197z"/><path d="m13 58c-.552 0-1-.448-1-1v-6.291c0-.388.224-.741.575-.905s.766-.112 1.064.136c3.814 3.168 9.571 5.06 15.4 5.06 5.603 0 10.944-1.762 15.444-5.095.444-.328 1.07-.235 1.399.208.329.444.235 1.07-.208 1.399-4.848 3.591-10.6 5.488-16.635 5.488-5.503 0-10.97-1.584-15.039-4.302v4.302c0 .552-.448 1-1 1z"/><path d="m57 46h-6.291c-.388 0-.74-.224-.905-.575s-.112-.766.136-1.064c3.168-3.813 5.06-9.57 5.06-15.4 0-5.603-1.762-10.943-5.095-15.443-.329-.444-.235-1.07.208-1.399.444-.328 1.07-.235 1.399.208 3.591 4.847 5.488 10.599 5.488 16.634 0 5.503-1.584 10.97-4.302 15.039h4.302c.552 0 1 .448 1 1s-.448 1-1 1z"/></g><path d="m48 32v-6h-2.293c-1.028 0-1.964-.655-2.254-1.641-.303-1.029-.712-1.633-1.216-2.558-.493-.905-.301-2.032.428-2.761l1.623-1.623-3.706-3.706-1.623 1.623c-.729.729-1.856.921-2.761.428-.925-.504-1.529-.913-2.558-1.216-.985-.289-1.64-1.225-1.64-2.253v-2.293h-6v2.293c0 1.028-.655 1.964-1.641 2.254-1.029.303-1.633.712-2.558 1.216-.905.493-2.032.301-2.761-.428l-1.623-1.623-3.706 3.706 1.623 1.623c.729.729.921 1.856.428 2.761-.504.925-.913 1.529-1.216 2.558-.289.985-1.225 1.64-2.253 1.64h-2.293v6h2.293c1.028 0 1.964.655 2.254 1.641.303 1.029.712 1.633 1.216 2.558.493.905.301 2.032-.428 2.761l-1.623 1.623 3.706 3.706 1.623-1.623c.729-.729 1.856-.921 2.761-.428.925.504 1.529.913 2.558 1.216.985.289 1.64 1.225 1.64 2.253v2.293h6v-2.293c0-1.028.655-1.964 1.641-2.254 1.029-.303 1.633-.712 2.558-1.216.905-.493 2.032-.301 2.761.428l1.623 1.623 3.706-3.706-1.623-1.623c-.729-.729-.921-1.856-.428-2.761.504-.925.913-1.529 1.216-2.558.289-.985 1.225-1.64 2.253-1.64z" fill="#afb6bb"/><circle cx="29" cy="29" fill="#fff" r="11"/><path d="m29 28c-.552 0-1-.448-1-1v-5c0-.552.448-1 1-1s1 .448 1 1v5c0 .552-.448 1-1 1z" fill="#28384c"/><path d="m34 30h-3c-.552 0-1-.448-1-1s.448-1 1-1h3c.552 0 1 .448 1 1s-.448 1-1 1z" fill="#28384c"/><path d="m27 27h4v4h-4z" fill="#7383bf"/></svg>