<svg id="Layer_1" data-name="Layer 1" xmlns="http://www.w3.org/2000/svg" xmlns:xlink="http://www.w3.org/1999/xlink" viewBox="0 0 553.89 144.39"><defs><style>.cls-1{opacity:0.45;fill:url(#linear-gradient);}.cls-2{fill:url(#linear-gradient-2);}.cls-3{fill:url(#linear-gradient-3);}.cls-4{fill:url(#linear-gradient-4);}.cls-5{fill:#0091ff;}.cls-6{fill:url(#linear-gradient-5);}.cls-7{opacity:0.3;fill:url(#linear-gradient-6);}</style><linearGradient id="linear-gradient" x1="45.36" y1="86.61" x2="75.1" y2="140.21" gradientUnits="userSpaceOnUse"><stop offset="0" stop-color="#2f22f3"/><stop offset="1" stop-color="#0198d7" stop-opacity="0"/></linearGradient><linearGradient id="linear-gradient-2" x1="400.16" y1="671.55" x2="310.98" y2="528.64" gradientUnits="userSpaceOnUse"><stop offset="0.16" stop-color="#e751e1"/><stop offset="1" stop-color="#00a2fb"/></linearGradient><linearGradient id="linear-gradient-3" x1="335.15" y1="479.99" x2="267.09" y2="541.73" gradientUnits="userSpaceOnUse"><stop offset="0" stop-color="#2f22f3"/><stop offset="1" stop-color="#0198d7" stop-opacity="0"/></linearGradient><linearGradient id="linear-gradient-4" x1="351.43" y1="497.97" x2="283.42" y2="559.66" xlink:href="#linear-gradient-3"/><linearGradient id="linear-gradient-5" x1="251.89" y1="76.03" x2="196.85" y2="76.03" xlink:href="#linear-gradient-3"/><linearGradient id="linear-gradient-6" x1="445.79" y1="561.96" x2="368.57" y2="612.15" xlink:href="#linear-gradient-3"/></defs><polygon class="cls-1" points="48.36 88.62 70.35 144.02 84.08 144.02 48.36 88.62"/><path class="cls-2" d="M349.12,553q15.48-3.63,23.39-13.85t7.93-26.64a49.35,49.35,0,0,0-2.95-17.19,39.6,39.6,0,0,0-23.6-23.78,57.23,57.23,0,0,0-21-3.53H274.63v26c11.34-6.25,24.67-5.05,26.54-2.64l5.39,6.95a10.6,10.6,0,0,0,12.29,15.83L327,524.63a3,3,0,0,1-1.52,4.71c-33.45,9.8-48.9,17.69-54.82,21.24a21.74,21.74,0,0,0-3.6,2.66l-.28.26a9.64,9.64,0,0,0-2.89,8.79,10.76,10.76,0,0,0,6.67,7.93l4.08,1.64h0V612h37.43v-55.4L347.78,612h46.6Z" transform="translate(-263.7 -467.96)"/><path class="cls-3" d="M307.73,510.44a10.47,10.47,0,0,1,1.69-4.84l-4-5.1a10.43,10.43,0,0,0-.59,2.65,10.65,10.65,0,0,0,2.82,8.17A8.77,8.77,0,0,1,307.73,510.44Z" transform="translate(-263.7 -467.96)"/><path class="cls-4" d="M329.86,531.92,327,528.26a2.88,2.88,0,0,1-1.54,1.08c-24.63,7.21-39.49,13.39-48,17.56v8.75c7.83-4.12,23.17-10.92,50.84-19A3,3,0,0,0,329.86,531.92Z" transform="translate(-263.7 -467.96)"/><path class="cls-5" d="M452.51,532.12l28.44.07v80.16H452.51V600.94q-9.06,11.41-24.53,11.41a39.93,39.93,0,0,1-16.1-3.2,38.7,38.7,0,0,1-12.81-9,41.32,41.32,0,0,1-8.52-13.59,46.54,46.54,0,0,1-3.05-17,45.17,45.17,0,0,1,3-16.33,41.87,41.87,0,0,1,8.29-13.51,38.42,38.42,0,0,1,28.91-12.51q15,0,24.84,10.47Zm-35.63,37.41a18.71,18.71,0,0,0,5.24,13.13,17.13,17.13,0,0,0,5.78,3.91,18.76,18.76,0,0,0,7.27,1.4,18.4,18.4,0,0,0,7.11-1.4,17.23,17.23,0,0,0,5.78-3.91,20.52,20.52,0,0,0,3.91-5.78,17,17,0,0,0,1.48-7,17.55,17.55,0,0,0-1.48-7.11,20.1,20.1,0,0,0-3.91-5.86,17.23,17.23,0,0,0-5.78-3.91,18.22,18.22,0,0,0-7.11-1.41A18.58,18.58,0,0,0,427.9,553a17.13,17.13,0,0,0-5.78,3.91,19.17,19.17,0,0,0-3.83,5.7A17.07,17.07,0,0,0,416.88,569.53Z" transform="translate(-263.7 -467.96)"/><path class="cls-5" d="M574.24,555.78v56.57H546V555.78H519.08v56.57H490.8V555.78H480.64V532.19H490.8V517.34q0-16.25,12.81-27.5a43.28,43.28,0,0,1,28.91-10.63,42.69,42.69,0,0,1,27.5,9.53q11.57-9.53,27.66-9.53a42.71,42.71,0,0,1,28.76,10.63q13,11.09,13,27.5v95H601.12v-95a19,19,0,0,0-.86-5.7,12.82,12.82,0,0,0-2.89-4.93,10.08,10.08,0,0,0-4.3-3,15.83,15.83,0,0,0-5.39-.86,12.19,12.19,0,0,0-9.69,4.37,37.25,37.25,0,0,0-2.18,3.36,10.3,10.3,0,0,0-1.25,3.52,10.48,10.48,0,0,0-.32,2.58v15.55H590.5v23.59ZM546,517.34a14.78,14.78,0,0,0-3.91-10.16,12,12,0,0,0-9.53-4.37,12.47,12.47,0,0,0-9.69,4.37,15.53,15.53,0,0,0-3.75,10.16v14.85H546Z" transform="translate(-263.7 -467.96)"/><path class="cls-5" d="M664.53,574.07q0,18.27,17.19,18.28,9.22,0,13.91-7.5H723q-8.29,27.49-41.41,27.5A54.21,54.21,0,0,1,663,609.3a41.33,41.33,0,0,1-14.45-8.67,38.56,38.56,0,0,1-9.3-13.44,44.74,44.74,0,0,1-3.28-17.5,49.6,49.6,0,0,1,3.12-18.05A37.88,37.88,0,0,1,648,538a39.58,39.58,0,0,1,14-8.68,52.88,52.88,0,0,1,18.51-3,51.86,51.86,0,0,1,18.29,3,37.22,37.22,0,0,1,13.75,8.83,38.4,38.4,0,0,1,8.59,14.15,56,56,0,0,1,3,18.83v3Zm33.13-16.41a17,17,0,0,0-5.78-9.54,17.94,17.94,0,0,0-21.33-.15,15.57,15.57,0,0,0-5.24,9.69Z" transform="translate(-263.7 -467.96)"/><path class="cls-5" d="M758.06,574.07q0,18.27,17.19,18.28,9.21,0,13.9-7.5H816.5q-8.28,27.49-41.41,27.5a54.25,54.25,0,0,1-18.6-3.05A41.51,41.51,0,0,1,742,600.63a38.69,38.69,0,0,1-9.3-13.44,44.74,44.74,0,0,1-3.28-17.5,49.6,49.6,0,0,1,3.12-18.05A38.14,38.14,0,0,1,741.49,538a39.58,39.58,0,0,1,14-8.68,52.94,52.94,0,0,1,18.52-3,51.8,51.8,0,0,1,18.28,3A37.22,37.22,0,0,1,806,538.12a38.55,38.55,0,0,1,8.6,14.15,56.24,56.24,0,0,1,3,18.83v3Zm33.13-16.41a17.05,17.05,0,0,0-5.79-9.54,17.94,17.94,0,0,0-21.33-.15,15.56,15.56,0,0,0-5.23,9.69Z" transform="translate(-263.7 -467.96)"/><polygon class="cls-6" points="217.25 87.83 227.09 87.83 217.25 64.23 217.25 87.83"/><path class="cls-7" d="M388.53,559.76a48.28,48.28,0,0,0,2,26.81,41.46,41.46,0,0,0,8.51,13.59,38.84,38.84,0,0,0,12.82,9,39.88,39.88,0,0,0,16.09,3.2l1,0Z" transform="translate(-263.7 -467.96)"/></svg>