<?xml version="1.0" standalone="no"?>
<!DOCTYPE svg PUBLIC "-//W3C//DTD SVG 20010904//EN"
 "http://www.w3.org/TR/2001/REC-SVG-20010904/DTD/svg10.dtd">
<svg version="1.0" xmlns="http://www.w3.org/2000/svg"
 width="224.000000pt" height="224.000000pt" viewBox="0 0 224.000000 224.000000"
 preserveAspectRatio="xMidYMid meet">

<g transform="translate(0.000000,224.000000) scale(0.100000,-0.100000)"
fill="#000000" stroke="none">
<path d="M232 1890 c-102 -37 -186 -128 -218 -236 -12 -43 -14 -132 -12 -556
l3 -503 33 -67 c37 -75 100 -138 172 -172 45 -21 51 -21 910 -21 861 0 865 0
910 21 72 34 136 98 172 172 l33 67 0 525 0 525 -33 67 c-37 75 -100 138 -172
172 -45 21 -53 21 -895 23 -819 2 -852 2 -903 -17z m1626 -160 c-4 -14 -648
-789 -678 -817 -32 -30 -88 -31 -124 -2 -21 17 -251 292 -545 654 -35 44 -79
97 -98 118 -18 20 -33 42 -33 47 0 7 255 10 741 10 474 0 739 -3 737 -10z
m-1345 -442 c437 -534 414 -509 481 -542 48 -25 70 -30 124 -30 110 2 164 37
284 185 75 94 570 691 585 707 7 7 19 22 27 34 8 11 19 17 25 14 27 -17 32
-119 29 -566 -3 -513 -2 -502 -80 -557 l-41 -28 -827 0 -826 0 -41 27 c-80 53
-78 40 -78 588 0 361 3 492 12 513 7 15 14 27 17 27 2 0 141 -168 309 -372z"/>
</g>
</svg>
