<svg xmlns="http://www.w3.org/2000/svg" width="20" height="23" viewBox="0 0 20 23">
  <g id="Bills_Color" data-name="Bills Color" transform="translate(5927 4364)">
    <g id="Subtração_46" data-name="Subtração 46" transform="translate(-5918 -4364)" fill="none">
      <path d="M4,0H7a4,4,0,0,1,4,4V19a4,4,0,0,1-4,4H4a4,4,0,0,1-4-4V4A4,4,0,0,1,4,0Z" stroke="none"/>
      <path d="M 3.999998569488525 2 C 2.897198677062988 2 1.999999046325684 2.897199630737305 1.999999046325684 4 L 1.999999046325684 19 C 1.999999046325684 20.1028003692627 2.897198677062988 21 3.999998569488525 21 L 7.000038623809814 21 C 8.102838516235352 21 9.000038146972656 20.1028003692627 9.000038146972656 19 L 9.000038146972656 4 C 9.000038146972656 2.897199630737305 8.102838516235352 2 7.000038623809814 2 L 3.999998569488525 2 M 3.999998569488525 0 L 7.000038623809814 0 C 9.209178924560547 0 11.00003814697266 1.790859222412109 11.00003814697266 4 L 11.00003814697266 19 C 11.00003814697266 21.20914077758789 9.209178924560547 23 7.000038623809814 23 L 3.999998569488525 23 C 1.790858268737793 23 -9.5367431640625e-07 21.20914077758789 -9.5367431640625e-07 19 L -9.5367431640625e-07 4 C -9.5367431640625e-07 1.790859222412109 1.790858268737793 0 3.999998569488525 0 Z" stroke="none" fill="#0091ff"/>
    </g>
    <g id="Subtração_48" data-name="Subtração 48" transform="translate(-5927 -4364)" fill="#e6edf1">
      <path d="M 12.00005626678467 22 L 3.999996662139893 22 C 2.345786809921265 22 0.9999967217445374 20.65420913696289 0.9999967217445374 19 L 0.9999967217445374 4 C 0.9999967217445374 2.345789909362793 2.345786809921265 1 3.999996662139893 1 L 12.00005626678467 1 C 13.65426635742188 1 15.00005626678467 2.345789909362793 15.00005626678467 4 L 15.00005626678467 19 C 15.00005626678467 20.65420913696289 13.65426635742188 22 12.00005626678467 22 Z" stroke="none"/>
      <path d="M 3.999997138977051 2 C 2.897196769714355 2 1.999997138977051 2.897199630737305 1.999997138977051 4 L 1.999997138977051 19 C 1.999997138977051 20.1028003692627 2.897196769714355 21 3.999997138977051 21 L 12.00005722045898 21 C 13.10285663604736 21 14.00005722045898 20.1028003692627 14.00005722045898 19 L 14.00005722045898 4 C 14.00005722045898 2.897199630737305 13.10285663604736 2 12.00005722045898 2 L 3.999997138977051 2 M 3.999997138977051 0 L 12.00005722045898 0 C 14.20919704437256 0 16.00005722045898 1.790859222412109 16.00005722045898 4 L 16.00005722045898 19 C 16.00005722045898 21.20914077758789 14.20919704437256 23 12.00005722045898 23 L 3.999997138977051 23 C 1.79085636138916 23 -3.814697265625e-06 21.20914077758789 -3.814697265625e-06 19 L -3.814697265625e-06 4 C -3.814697265625e-06 1.790859222412109 1.79085636138916 0 3.999997138977051 0 Z" stroke="none" fill="#0091ff"/>
    </g>
    <g id="Elipse_350" data-name="Elipse 350" transform="translate(-5922 -4355)" fill="none" stroke="#0091ff" stroke-width="2">
      <circle cx="3" cy="3" r="3" stroke="none"/>
      <circle cx="3" cy="3" r="2" fill="none"/>
    </g>
  </g>
</svg>
