<svg xmlns="http://www.w3.org/2000/svg" width="20.192" height="22.11" viewBox="0 0 20.192 22.11">
  <g id="Box" transform="translate(5924.096 4329.032)">
    <line id="Linha_79" data-name="Linha 79" x1="9" y1="5.19" transform="translate(-5918.5 -4325.792)" fill="none" stroke="#2c304d" stroke-linecap="round" stroke-linejoin="round" stroke-width="2"/>
    <path id="Caminho_942" data-name="Caminho 942" d="M21,16V8a2,2,0,0,0-1-1.73l-7-4a2,2,0,0,0-2,0l-7,4A2,2,0,0,0,3,8v8a2,2,0,0,0,1,1.73l7,4a2,2,0,0,0,2,0l7-4A2,2,0,0,0,21,16Z" transform="translate(-5926 -4330.002)" fill="none" stroke="#2c304d" stroke-linecap="round" stroke-linejoin="round" stroke-width="2"/>
    <path id="Caminho_943" data-name="Caminho 943" d="M3.27,6.96,12,12.01l8.73-5.05" transform="translate(-5926 -4330.002)" fill="none" stroke="#2c304d" stroke-linecap="round" stroke-linejoin="round" stroke-width="2"/>
    <line id="Linha_80" data-name="Linha 80" y1="10.08" transform="translate(-5914 -4318.002)" fill="none" stroke="#2c304d" stroke-linecap="round" stroke-linejoin="round" stroke-width="2"/>
  </g>
</svg>
