<svg xmlns="http://www.w3.org/2000/svg" width="16" height="22" viewBox="0 0 16 22">
  <g id="PH_Color" data-name="PH Color" transform="translate(5884 -0.001)" fill="none">
    <path d="M-5878.667,22H-5882a2,2,0,0,1-2-2V2a2,2,0,0,1,2-2h3.333a2.332,2.332,0,0,0,.781,1.728,2.778,2.778,0,0,0,1.886.716A2.566,2.566,0,0,0-5873.333,0H-5870a2,2,0,0,1,2,2V20a2,2,0,0,1-2,2h-3.333a2.332,2.332,0,0,0-.782-1.728,2.774,2.774,0,0,0-1.885-.717A2.566,2.566,0,0,0-5878.667,22Z" stroke="none"/>
    <path d="M -5880.16748046875 20.00174522399902 C -5879.3974609375 18.55209350585938 -5877.818359375 17.55579566955566 -5875.99951171875 17.55579566955566 C -5874.7861328125 17.55579566955566 -5873.63623046875 17.99733543395996 -5872.76318359375 18.7983455657959 C -5872.37646484375 19.15296936035156 -5872.0625 19.55913352966309 -5871.828125 20.00118064880371 L -5870.001953125 20.00116539001465 C -5870.0009765625 20.00062942504883 -5870.00048828125 20.00018501281738 -5870.00048828125 20.00028419494629 L -5869.9990234375 2.004244804382324 C -5869.99951171875 2.003484964370728 -5870.00048828125 2.002395391464233 -5870.00146484375 2.001474857330322 L -5871.83251953125 2.001474857330322 C -5872.6025390625 3.450034141540527 -5874.18115234375 4.445394992828369 -5875.99951171875 4.445394992828369 C -5877.21240234375 4.445394992828369 -5878.36181640625 4.004624843597412 -5879.23779296875 3.202504873275757 C -5879.6240234375 2.847954511642456 -5879.9375 2.44233250617981 -5880.17138671875 2.000932693481445 L -5881.9970703125 2.000274896621704 C -5881.998046875 2.00073504447937 -5881.9990234375 2.001766920089722 -5882 2.002811431884766 L -5882.0009765625 19.99775505065918 C -5882.00048828125 19.99894142150879 -5881.99853515625 20.00082397460938 -5881.99853515625 20.00119400024414 L -5880.16748046875 20.00174522399902 M -5878.66650390625 22.00219535827637 L -5878.66748046875 22.00219535827637 L -5881.99951171875 22.00119400024414 C -5883.1025390625 22.00119400024414 -5884 21.10359573364258 -5884 20.00028419494629 L -5884 2.000914812088013 C -5884 0.8984248638153076 -5883.1025390625 0.001474869437515736 -5881.99951171875 0.001474869437515736 L -5878.66650390625 0.001474869437515736 C -5878.66650390625 0.653364896774292 -5878.38916015625 1.266594886779785 -5877.88525390625 1.729204893112183 C -5877.380859375 2.191044807434082 -5876.71142578125 2.44539475440979 -5875.99951171875 2.44539475440979 C -5874.52880859375 2.44539475440979 -5873.33251953125 1.34905481338501 -5873.33251953125 0.001474869437515736 L -5869.99951171875 0.001474869437515736 C -5868.8974609375 0.001474869437515736 -5868.00048828125 0.8984248638153076 -5868.00048828125 2.000914812088013 L -5868.00048828125 20.00028419494629 C -5868.00048828125 21.10359573364258 -5868.8974609375 22.00119400024414 -5869.99951171875 22.00119400024414 L -5873.33251953125 22.00119400024414 C -5873.3330078125 21.34853553771973 -5873.6103515625 20.73505401611328 -5874.11474609375 20.27275466918945 C -5874.61865234375 19.81041526794434 -5875.2880859375 19.55579566955566 -5875.99951171875 19.55579566955566 C -5877.47021484375 19.55579566955566 -5878.66650390625 20.65279579162598 -5878.66650390625 22.00119400024414 L -5878.66650390625 22.00219535827637 Z" stroke="none" fill="#0091ff"/>
  </g>
</svg>
