<svg xmlns="http://www.w3.org/2000/svg" width="12.75" height="12.38" viewBox="0 0 12.75 12.38"><defs><style>.a{fill:#7778ed;}</style></defs><path class="a" d="M1634.031,1066.914c-2.981,0-5.022.009-7.063,0-.805-.005-1.708-.106-1.658-1.147.048-1.008.955-1.076,1.76-1.079,2.02-.007,4.04,0,6.818,0-1.383-1.583-2.245-2.493-3.01-3.478a.873.873,0,0,1,.32-1.328c.288-.167.872-.284,1.041-.125,1.887,1.784,3.744,3.6,5.55,5.465.585.605.1,1.206-.36,1.674-1.553,1.575-3.112,3.145-4.7,4.685-.489.474-1.069.75-1.679.09s-.256-1.181.191-1.687C1631.924,1069.2,1632.629,1068.45,1634.031,1066.914Z" transform="translate(-1625.308 -1059.676)"/></svg>