<svg id="_Icon" data-name="? Icon" xmlns="http://www.w3.org/2000/svg" width="28.69" height="28.69" viewBox="0 0 28.69 28.69">
  <path id="Caminho_20" data-name="Caminho 20" d="M10.6,10.391H8.756q-.007-.4-.007-.484a3.22,3.22,0,0,1,.3-1.472,4.49,4.49,0,0,1,1.184-1.3A8.862,8.862,0,0,0,11.29,6.19a1.264,1.264,0,0,0,.267-.78A1.314,1.314,0,0,0,11.084,4.4,1.842,1.842,0,0,0,9.81,3.974a1.93,1.93,0,0,0-1.292.44A2.343,2.343,0,0,0,7.8,5.757L5.941,5.526a3.09,3.09,0,0,1,1.1-2.194,3.9,3.9,0,0,1,2.681-.9,4.043,4.043,0,0,1,2.779.913,2.764,2.764,0,0,1,1.032,2.126,2.337,2.337,0,0,1-.379,1.27,8.318,8.318,0,0,1-1.62,1.631,3.093,3.093,0,0,0-.8.859A2.88,2.88,0,0,0,10.6,10.391Z" transform="translate(4.746 6.03)" fill="#0091ff"/>
  <g id="Elipse_22" data-name="Elipse 22" fill="none" stroke="#0091ff" stroke-width="1.5">
    <circle cx="14.345" cy="14.345" r="14.345" stroke="none"/>
    <circle cx="14.345" cy="14.345" r="13.595" fill="none"/>
  </g>
  <ellipse id="Elipse_23" data-name="Elipse 23" cx="1.386" cy="1.386" rx="1.386" ry="1.386" transform="translate(13.052 18.225)" fill="#0091ff"/>
</svg>
