<svg xmlns="http://www.w3.org/2000/svg" xmlns:xlink="http://www.w3.org/1999/xlink" width="1366" height="398" viewBox="0 0 1366 398"><defs><style>.a{fill:#e9f7ff;}.b{clip-path:url(#a);}.c{opacity:0.75;}.d{fill:#bee6fe;}.e{opacity:0.5;}.f,.j{opacity:0.25;}.g{opacity:0.999;}.h{fill:#bfe8fe;}.i{fill:#def2fe;}.j{fill:#b0e1fe;}.k{fill:#d3eefe;}</style><clipPath id="a"><rect class="a" width="1366" height="398" transform="translate(3264 -8030)"/></clipPath></defs><g transform="translate(0 -126)"><g transform="translate(1)"><rect class="a" width="1366" height="398" transform="translate(-1 126)"/><path class="a" d="M2278.333,1097.363c-.161.983-.329,1.952-1.563.778A1.63,1.63,0,0,1,2278.333,1097.363Z" transform="translate(-1152.867 -724.182)"/><path class="a" d="M2286.93,1095.018c-.16.982-.326,1.954-1.563.779A1.636,1.636,0,0,1,2286.93,1095.018Z" transform="translate(-1152.867 -724.182)"/><path class="a" d="M2298.654,1091.9c-.161.982-.328,1.952-1.563.778A1.632,1.632,0,0,1,2298.654,1091.9Z" transform="translate(-1152.867 -724.182)"/><path class="a" d="M2310.377,1088.77c-.16.982-.327,1.953-1.563.779A1.634,1.634,0,0,1,2310.377,1088.77Z" transform="translate(-1152.867 -724.182)"/><path class="a" d="M2322.1,1085.647c-.161.982-.329,1.951-1.563.777A1.629,1.629,0,0,1,2322.1,1085.647Z" transform="translate(-1152.867 -724.182)"/></g><g class="b" transform="translate(-3264 8156)"><g class="c" transform="matrix(0.809, 0.588, -0.588, 0.809, -6719.635, -6160.194)"><ellipse class="d" cx="36.986" cy="36.986" rx="36.986" ry="36.986" transform="translate(8035.697 -7793.5)"/><rect class="d" width="142" height="89" transform="translate(8002 -7721)"/></g><g transform="matrix(-0.809, 0.588, -0.588, -0.809, 3653.808, -7631.155)"><ellipse class="d" cx="36.986" cy="36.986" rx="36.986" ry="36.986" transform="translate(33.697 87.528)"/><rect class="d" width="142" height="89" transform="translate(0 0)"/></g><g transform="matrix(0.809, 0.588, -0.588, 0.809, -6595.635, -6318.194)"><ellipse class="d" cx="36.986" cy="36.986" rx="36.986" ry="36.986" transform="translate(8035.697 -7793.5)"/><path class="d" d="M25,0h92a25,25,0,0,1,25,25V89a0,0,0,0,1,0,0H0a0,0,0,0,1,0,0V25A25,25,0,0,1,25,0Z" transform="translate(8002 -7721)"/></g><g class="e" transform="matrix(-0.809, 0.588, -0.588, -0.809, 3529.808, -7789.155)"><ellipse class="d" cx="36.986" cy="36.986" rx="36.986" ry="36.986" transform="translate(33.697 87.528)"/><path class="d" d="M0,0H142a0,0,0,0,1,0,0V64a25,25,0,0,1-25,25H25A25,25,0,0,1,0,64V0A0,0,0,0,1,0,0Z" transform="translate(0 0)"/></g><g class="e" transform="matrix(0.809, 0.588, -0.588, 0.809, -6484.635, -6484.194)"><ellipse class="d" cx="36.986" cy="36.986" rx="36.986" ry="36.986" transform="translate(8035.697 -7793.5)"/><path class="d" d="M25,0h92a25,25,0,0,1,25,25V89a0,0,0,0,1,0,0H0a0,0,0,0,1,0,0V25A25,25,0,0,1,25,0Z" transform="translate(8002 -7721)"/></g><g class="f" transform="matrix(-0.809, 0.588, -0.588, -0.809, 3418.808, -7955.155)"><ellipse class="d" cx="36.986" cy="36.986" rx="36.986" ry="36.986" transform="translate(33.697 87.528)"/><path class="d" d="M0,0H142a0,0,0,0,1,0,0V64a25,25,0,0,1-25,25H25A25,25,0,0,1,0,64V0A0,0,0,0,1,0,0Z" transform="translate(0 0)"/></g><g class="f" transform="matrix(0.809, 0.588, -0.588, 0.809, -6450.635, -6213.194)"><ellipse class="d" cx="36.986" cy="36.986" rx="36.986" ry="36.986" transform="translate(8035.697 -7793.5)"/><rect class="d" width="142" height="89" transform="translate(8002 -7721)"/></g><g class="g" transform="matrix(-0.809, 0.588, -0.588, -0.809, 3384.808, -7684.155)"><ellipse class="d" cx="36.986" cy="36.986" rx="36.986" ry="36.986" transform="translate(33.697 87.528)"/><rect class="d" width="142" height="89" transform="translate(0 0)"/></g><g transform="matrix(0.809, 0.588, -0.588, 0.809, -6339.635, -6379.194)"><ellipse class="d" cx="36.986" cy="36.986" rx="36.986" ry="36.986" transform="translate(8035.697 -7793.5)"/><rect class="d" width="142" height="89" transform="translate(8002 -7721)"/></g><g transform="matrix(-0.809, 0.588, -0.588, -0.809, 3273.808, -7850.155)"><ellipse class="d" cx="36.986" cy="36.986" rx="36.986" ry="36.986" transform="translate(33.697 87.528)"/><rect class="d" width="142" height="89" transform="translate(0 0)"/></g><path class="a" d="M-1911.888,491.485l9.7,1.731-7.269,6.649,1.36,9.758-8.577-4.858-8.862,4.311,1.969-9.654-6.838-7.092,9.792-1.119,4.64-8.695Z" transform="translate(6410.437 -8345.948)"/><path class="a" d="M-1920.7,491.485l-9.7,1.731,7.269,6.649-1.36,9.758,8.577-4.858,8.862,4.311-1.969-9.654,6.838-7.092-9.792-1.119-4.64-8.695Z" transform="translate(5316.054 -8345.948)"/><path class="a" d="M-1911.888,491.485l9.7,1.731-7.269,6.649,1.36,9.758-8.577-4.858-8.862,4.311,1.969-9.654-6.838-7.092,9.792-1.119,4.64-8.695Z" transform="translate(6287.437 -8187.948)"/><path class="a" d="M-1920.7,491.485l-9.7,1.731,7.269,6.649-1.36,9.758,8.577-4.858,8.862,4.311-1.969-9.654,6.838-7.092-9.792-1.119-4.64-8.695Z" transform="translate(5439.054 -8187.948)"/><path class="a" d="M-1911.888,491.485l9.7,1.731-7.269,6.649,1.36,9.758-8.577-4.858-8.862,4.311,1.969-9.654-6.838-7.092,9.792-1.119,4.64-8.695Z" transform="translate(6521.437 -8511.948)"/><path class="a" d="M-1920.7,491.485l-9.7,1.731,7.269,6.649-1.36,9.758,8.577-4.858,8.862,4.311-1.969-9.654,6.838-7.092-9.792-1.119-4.64-8.695Z" transform="translate(5205.054 -8511.948)"/><circle class="a" cx="17" cy="17" r="17" transform="matrix(0.809, 0.588, -0.588, 0.809, 4262.982, -7690.591)"/><circle class="a" cx="17" cy="17" r="17" transform="matrix(-0.809, 0.588, -0.588, -0.809, 3650.907, -7663.085)"/><circle class="a" cx="17" cy="17" r="17" transform="matrix(0.809, 0.588, -0.588, 0.809, 4531.982, -7743.591)"/><circle class="a" cx="17" cy="17" r="17" transform="matrix(-0.809, 0.588, -0.588, -0.809, 3381.906, -7716.085)"/><circle class="a" cx="17" cy="17" r="17" transform="matrix(0.809, 0.588, -0.588, 0.809, 4610.982, -7927.591)"/><circle class="a" cx="17" cy="17" r="17" transform="matrix(-0.809, 0.588, -0.588, -0.809, 3302.906, -7900.085)"/><path class="h" d="M-1914.248,226.335l-36.714-24.9c-14.39,21.223-9.619,49.573,10.658,63.322Z" transform="translate(6285.554 -8068.904)"/><path class="i" d="M-1959.272,226.335l36.714-24.9c14.39,21.223,9.619,49.573-10.658,63.322Z" transform="translate(5376.87 -8236.904)"/><path class="j" d="M-1709.354,535.052a35.149,35.149,0,0,1-48.728,9.827,35.15,35.15,0,0,1-9.827-48.728" transform="translate(6198.663 -8565.419)"/><path class="j" d="M-1742.371,552.617a35.15,35.15,0,0,1,48.728-9.828,35.15,35.15,0,0,1,9.827,48.729" transform="translate(6134.224 -8563.328)"/><path class="k" d="M-1677.94,552.617a35.15,35.15,0,0,0-48.728-9.828,35.15,35.15,0,0,0-9.827,48.729" transform="translate(5290.991 -8391.328)"/></g></g></svg>