<svg xmlns="http://www.w3.org/2000/svg" width="1366" height="397" viewBox="0 0 1366 397"><defs><style>.a,.c,.d{fill:#bfe6fe;}.b{fill:#e9f7ff;}.c{opacity:0.5;}.d{opacity:0.25;}</style></defs><g transform="translate(0 -126)"><rect class="a" width="170" height="104" transform="translate(1196 419)"/><path class="b" d="M-1920.672,491.509l-9.729,1.736,7.288,6.667-1.364,9.784,8.6-4.871,8.886,4.323-1.974-9.68,6.856-7.111-9.819-1.122-4.652-8.718Z" transform="translate(3197.027 -25)"/><rect class="c" width="164" height="72" transform="translate(1012 451)"/><rect class="a" width="164" height="67" transform="translate(0 456)"/><rect class="d" width="149" height="272" transform="translate(1217 126)"/><rect class="c" width="164" height="72" transform="translate(72 271) rotate(90)"/><rect class="a" width="162" height="124" transform="translate(0 126)"/><path class="b" d="M-1920.672,491.509l-9.729,1.736,7.288,6.667-1.364,9.784,8.6-4.871,8.886,4.323-1.974-9.68,6.856-7.111-9.819-1.122-4.652-8.718Z" transform="translate(1991.027 -310)"/></g></svg>